<mxfile host="app.diagrams.net" agent="Mozilla/5.0 (Windows NT 10.0; Win64; x64) AppleWebKit/537.36 (KHTML, like Gecko) Chrome/134.0.0.0 Safari/537.36 Edg/134.0.0.0" version="26.1.3">
  <diagram name="Page-1" id="RWzQKyMEOjnXQckw0QbF">
    <mxGraphModel dx="994" dy="685" grid="1" gridSize="10" guides="1" tooltips="1" connect="1" arrows="1" fold="1" page="1" pageScale="1" pageWidth="827" pageHeight="1169" math="0" shadow="0">
      <root>
        <mxCell id="0" />
        <mxCell id="1" parent="0" />
        <mxCell id="zgv-A3x9dPpz6e0cSFzw-1" value="asdasdasd&lt;br&gt;ASDasd&lt;div&gt;&lt;br&gt;&lt;/div&gt;" style="text;html=1;align=center;verticalAlign=middle;resizable=0;points=[];autosize=1;strokeColor=none;fillColor=none;" vertex="1" parent="1">
          <mxGeometry x="180" y="143" width="80" height="60" as="geometry" />
        </mxCell>
        <mxCell id="zgv-A3x9dPpz6e0cSFzw-2" value="" style="shape=image;verticalLabelPosition=bottom;labelBackgroundColor=default;verticalAlign=top;aspect=fixed;imageAspect=0;image=data:image/png,iVBORw0KGgoAAAANSUhEUgAAAasAAAHACAYAAAAcIkf0AAAAAXNSR0IArs4c6QAAAARnQU1BAACxjwv8YQUAAAAJcEhZcwAADsMAAA7DAcdvqGQAAKs5SURBVHhe7N1/XJRlvvj/FwwwiDL+YvwRoIlGDWiB1hnJPfhjd0QLtQ2jDY+d8NCKa99wc2XL1bVWFltcW+nk0Y6c6MSRNtM+/qAUZxdxWgO2VEoBI8QQUBQUGBQYYJjvH/ODmRtQVETK69njfjRzXdfc3PPD+31f1/W+79vJZDKZEARBEH6wTp48yaRJk6TFPyrO0gJBEARB6G9EsBIEQRD6PRGsBEEQhH5PBCtBEASh3xPBShAEQej3RLASBEEQ+j2nZkOLSF0XBEG4C+RurtKiWyJS1wVBEAShHxDBShAEQej3RLASBEEQ+j0RrARBEIR+TwQrQRAEod8TwUoQBEHo90SwEgRBEPo9EawEQRCEfk8EK0EQBKHfE8FKEARB6Pfu0uWWKkld+ARJp6Xldh56Be2uf8fH+jz7NVQvfebYppOHiP/sI6LHgG71IyzdJ6239wTvntpAqO15D7bJIvydr9k4Q1oqCIJwc8Tllnqu//asTr+FZuJr6KTlveYzlk58ltRz0nJBEAShv+m/wQqAz9ifLS3rTadJ2va5tFAQBEHoZ+5+sJr/DkWnvnZcPnuFAEt16dlKyQseIv4zSXvbYh4CdGz+CtpO7T4j/iFLfXEpFQB4E73Lvs07hFuaBKz8zOH1YghQEAShb939YHUDfuO8pUWCIAjCPab/JlggSbLoSYLF/HcoSvxXoCcJFmYBKz9jd3RXAfFzVk18iYzrthEEQbh1IsGi5/p1zyr8JbtswDvhoVdIFkFIEASh3+vXwSrjpUeISJXOWfUC6zyZfWq8IAiC0G/d/WDVVYLFqa95d765unDTO5L09eskWFiGAB2bdyRYWNfJvpdQrRZZgIIgCD8Udz9Y9aHQRMeAdUd6bYIgCEKvu/vBat9LqCY+0mmxJUc89BB+Di84TdITndtblxsFoNDEjrT1wk2viJOCBUEQfgDufrC6gd5PsvAm+i3reVynSXrlfy3nWQmCIAj9VT8OVua5qTtyAu6Yfyd5paV7dfot4m7QGxMEQRDurrt0npUgCIIgzrPquX7csxIEQRAEMxGsBEEQhH5PBCtBEASh3xPBShAEQej3RLASBEEQ+j0RrARBEIR+TwQrQRAEod8TwUoQBEHo90SwEgRBEPo9EawEQRCEfk8EK0EQBKHfE8FKEARB6PdEsBIEQRD6PafSc+fFVdcFQRDugnG+o6VFt+ReuOq6k8lkEsFKEAThB+xeCFZiGFAQBEHo90SwEgRBEPo9EawEQRCEfk8EK0EQBKHfE8FKEARB6PdEsBIEQRD6PRGsBEEQhH5PnGd1z6ogZcFsEouk5V1QreLI3mh8peU/KDpW+MeyDwAVq7W7iRlrX2+gfPdadiqTWBlqX95b7P/+DTy1jdIk80ZkxwewZI+5ODD+EPtjfBzbCoI4z0oQ7hG1OhLDpzL9tQzK26SVgiD0ByJYCfe87A2xpBQbpMWCIPQjIlgJlmGxQkqLu1l+8EOAAKFstr0n6RBgXwvnPelnbL9YhgAFQegggpVw0wxlWjYtj0L9aAB+/pbl0VBmR28ks8yuh5KbQJC1fnkGnfoup5KZbq1/Lp1qh0oD5QeSWRapRmVpo1KHs2iDlvJOKzLP7Zi3JYKU/DwSn1abn09SszC11DJnZNemDChLZZ5/x5wQwL5Yc5t5KRUdhcYGjqfEMVsdbH69So06Mp60Yw0dbe4S63cRNMny3iapO38PgCEjzvZdTd/kOFFZvTO643tckEq5faX9d2T3HRrKtKyLDCVIdaPvxu5zX5DK8dyNzLP8blTqKFKKza30x9JZETm7431Y17kmneO10nUK9yIRrISbU5rKwjlxbNHmU623K9fXUHI0lWVzokgptZQ9pmGBwvJYqyWz0a49UJD5qW3HOHnebJTWCmMpO2M0TI97l8z8ho4dZG0pOalxTJ8Vy07r3+ikgu3Lo0k5ZQkkBghU+Ukb9Zw+n03PqFmYpKWk1rIlxgaq8zNY91yoJRDeHSU7YwnVmL8Lve1DajB/DxoNS+w+JPksDWGWx+W6XLuAZCDnSJ7tGUU6cuyOGspzdba2IdOnIgeqM+II1cSRll+D3mius303mrVk2/8u7FWmsiw6lQJLvcEYQOB40GfFo3kugX35FR3vw7rOnQksDI/vfp3CPeMHEazOHUjjuw/f4rsP36L6cCp1uTsclpaL30lfItyUIhI1HUe0DovDkXYNOxM3UmAEZCpW7j1hHrY6qWNzuKe5ibGId3bkmx/L1EQ+Z81e03Igy/6wO5+dH1p7Lxqef8rLVlOwOZZXdTXmJxOXsiuvkNKiExzaoDEHtGodry5eS7Yk+Jk1UF2tIubDPEqLCyk6uJuXpkrbWIyNZn9xIe891VE0f5t5KM6cdWcgO+lltpwy1wUuTSe/qJDSvHSWTwQwcHxDLJKOSg9ksET6OVuXeJ20cddOJfMfa3Tm3qhMxXLb+11PmBKghuw1L/CqzvKZe0xlpvVzsA9IxjyysiyPAcjjC8vXBzXk6KxvLog5oV5QlsqSVVrz31VqeFN7gtLiExyxfjdVu1myVtu5F435gKbaP7rj+9wdS4gsn03xGeb1qaLZcbTjN7UjRmV+XXUGK96yC6jCPanfBquy/e9x5uP/5MzH/0lN/uegP4tLcwWtNd9huHDaYWko/Bv1X36E4cJN7zU6aWtrY/v27Rw7dgyj0XLYaOeTTz5Bp9PR0NB5COjzzz/n4MGDXLx4UVr1I+FFZIplXqVoN8tVcnOx3Iv5c6fbWukbOg6DA5940jbflXnAbid2LIO91mZzwwnzsDxu1PKOdQhOpmHz+3FMHgrI5EyISGZzlCUoVu/mnT2WgCY1N5aVU8zt5H4+HT22m1Wdwfadlr8xdilvrgxCIQOGBrHyD0st76uCtI/6ekdqIHP7u7aDiLCN79u93wi2borC3KGtYefW3ZbhVS9mzgmyvCKPw3mWb6LoBCckP/PsXEu0aszlcK6lUKVhxig4/sE288EKELYmicixckCOb0QSv9NY2h5IZWeV5bFEWOzLHd/nWC8oO8Fx6++g0dDx+5B7ERK/2zaPl/+6umMlwj2p3wWrs3u3c/b/baPmm39wpSCPKwV5eA6TM2iYAo8hA5G5yKQvoa3uPM0Vp7h2+jD6Y7tprrAcCt8Ck8nEV199RWVlJV2dgnb69GnKysowGDofO547d47vvvuOq1evSqt+lAy1peQcSGfTK9FMfyVDWm2mimCx5QDZfijw+Gf7se6j5i/QYAl7cFRLpnXnOUtDmHUY0SJk3jzLjhiOHzwimecyC5yk6ljf7TiZR471cXAwgfZ1E4MJtjzUH8mlwL7uTjPqOHDA+kTD3FmWAG41Nbxj+PWYlsOWD0k5TWN7D5k6c4DtGObzwdeSdKLPOmJ+P7k6Mi3tfWdNxZcKjn9lPUhTMSXA/lOWExxs/aLz+eKrzv8+Or8G8BnPeOs/6bJ0lkwLJujpeFIOFFHd1SqEe1a/CVamdiPf7/8fLn/9D2q+/gftrS0ADB41lEHDFTi73HhTW+su0HQun8bvdNR+9897JmjcvutkA0ozAY01ZG6IZvokywR4XAJbMvK6mFi38mHBs9Yjei0fZdQA+ezda9npKaJ4tqNTRnnZGdtjX7/xnYOOl3fH9hQWOSYDWIwf2zsnzpaXdmwLe2IlQ3Z2J/hWVnYZNLt3nWzAnmQCVlRg2zJvP8Zbe6U2Xvh6Wx8XUnDO8nDsVGZYsyCzdBy3H+bzj2D1s5ZgU5lPQTUcP3rE0tiH+T9VAaWcsg1edB46np7UMbJRUdXVJzIeX+lXIwtlZbw1yJnpT2WQGBeBOkjNvPhUsiXJIsK96cYR4A4zGo2UlpZSevYsF6610eb/ODi7gCVQeXopcJbd3Ga21l3gatUZamtruxyuE25VA9mvPc2yVEtwkvsQEr6UNz7IID85XNrYRqmJIMTyOOdILga7IUDFgnBCOneWb09vr68HDJ1HjPshFXPmWKKFXsfh/BN8YRnmU6jVhE0NtRwI5HE4L4/DWZZ/O95PMmeidR09YzCaDzal5F18N77Ru8n/cA3zgzwdD06MDRTs2cgSSbKIcG+6uSjQy9ra2vj++++5cOECVVUXafedyADVVAZM1jBg8mzcJs3CSd7psLFHZNcuYqz+TgSs3lS2i03WeSJFOFuPHmLHW3EsnuqHwnx80TVlOM/PtTzWakncr7MMAfqw+OfWXpeZ79jxtsflpWc6T9TXVHb0pgJUd/T8L/tt4altnXtBtiWJsC52wneMjw+2Lass5UynRJMayiutjwMIHNNRExhmnUOsIPutdLIt5TOmBcHE6cywDB9mvpdEtmUdilnTLcOHPjzgb3nB9XrjxYUcWnpzGZiKKVFs3plH0ck8Dn2QxOpoDZOHWkNXDdnrkjtlkwr3lrsarIxGI1VVjjOxHh4euD+kxj3gcdpGTsIkc3Oo7ylZ02XcLn1De00JdXV1ImD1hjNFHXMz3ioC7OaTCr6xpZB1Qc6MOdbZdy1pH1kSKMZ2ccQepLb1wsjSkilJWc7Z3zHXNXnO9FtPnugJ+205ccJhXsr+vKUeZ/D1Flkwj9syHLUcsPaArHLtklemaJhp/yHZBaSC3DzLZ6lh1lSAIGbOsrQ7Zf2uPVmgsR5Q+BGits6PFXGs0P5QoohNM61Dgpbz2G6F3JMJU8OJeS2ZXV+kEmMdzjRWUN7VyKJwz7irwUpq4MCBODk5SYtvmTlgfW3rYYk5rNs0XtWRZFCUYTkp1kD5gbX82v4k2rZO/SHks6NYbA1uliGzwGcjHJMWAJQRrFxsSWM3alnxQrL5pFCjgZLdcaxIt+yYlVGsfrYj3f222B0PnThRBBjQ6w2OPcKyd3l1U5550r82n03btZYKH5Y/34N5pl7lRWRclC1QZ656gU2WE5QNpbtZtjLdEoS8WPybjnZmQcyxnmZgpQoi2DKAEfioJOtONp2Zj3U8nbwwqiO7MyGenaUG829g5zbSrL05TTSRPb1CiP2J45oEsqusvx0D1V9qybGuUxFMoHS+S7in3LVg1dbW5tCrcnJyYtCgQQ5tXK8U49TN2HdPyZquIL/0Ne01Jb3auzp//jyNjffYuMTYhay0nQ9VRMpzavz8g5ket5sSF09zWjfAicLO2XEyNQsW2O8kg4gM73rvM3n1+7wZavk7p95loToAP1Uws1+znt8Typtpa5jcS0NvIdOsvT4ofzcCP/9gghLyADlh67cROcpcV/BuNOpJAfipo0ix5BIExm9jpbR32BemrGFHQqg5EBmL2PKc+YodqjlryawG8GJGwvu8MUX6QggJtctoAXxDp9oCkFId6ngAMVvjOKeoiuN/Xgsyzy1Va3l1TrD5N7BGaw6QynDe2xBuy9i8oalxbF1sGTIsS2dJqOUqIf7BqJ9PtfyOvJifFNf7c5vCD8pdDVYVFeajcScnJwYMGOBQ73rlO+RVx3Fqa3YovxXOTVeQX8zHRd9V7titOXfu3D3YU/NkxoZP2BqtZoJ1b6TwYvJTa9il+xt/sA4hVX7KwS7OHrA/KmdqBHMsQaATmR+RKVqOpKxifpCXLQjKh/oREp3MkaxtRN7clMh1yecmsCte0/Ge5J74GvTmwKgI5U3tIfN7ts2hyFH4a1ieqmN/TC9uyE2aELkNnXYbq58KQmm37ROmRbNVq+W97j6kqRq7OTZPZsywy8YbO5UZtkxCCNOEdsrInBCdTt6Haxy+GxReTI5az6EDSbZhxp7xJGRtBvkfriFyml/H+8CyTs1Stmq1bJam5wv3nLt2P6vm5maOHTsGlmA1YsQIh/pBRTtxamtyKLtd8lEPMiTk36TFDlpbW3nppZd48skneeKJJ3BxccwcSExMxNfXl6FDh/Iv//IvDtu9Y8cOrly5whNPPMH48XaT84IgCHeQuJ/VXeJadxZMvZ8LbGyqp+VSibRYEARB6Of6ZbCSn8+97bmqrrTVV3Htu39IiwVBEIR+rt8FKxd9OZjapcWCIAjCPazfBasB5Udwahf3FhcEQRA63L1gZWzDqa4jdb2lxUBb1dkuLx5r9PDCOGhUp8Xk4phBaM/kOrBT+3b3odJmgiAIwg9Anwer9rYWWi+fo+3id7h8fRAn/SVMJhO1l6/Q8Lf/hS5uy9E6/CGaxv6UxnFhDkvboNHSpjatg8c6tG0aM4PWISJDTxAE4YeoT4NVe1sLLReKuKLbjv6rnbg5G3E98Zm0WSfu5f/ARV+GrOmyw+Jk7HylBCuntmaHtubztr6SNhMEQRB+APo0WBnrq6j758e0GVqRubowwm8kmNpxulYLTiAbMoJWQyt0HgnEvfwfeJRkUJf3ERd0OzCd/H+4NNiu1tmJa10prV9/wgXdDhq+3Im8ynxOlyAIgvDD06fBCqDV0MKlsxdpa2kDnHBxMuL6z09wcpahCP8VF89cpL29+2zAN97P4+nff0pOYTe3IrVz8J9lPP37T9m863oXWe1eY2Njl3NoXWloaMBoNHY6iVgQBEG4fX0erJycnDAZ27lUWoXMVcaoB+4Dyx16u7qN/N1kvX39jQLWtWvX2L17N01NTfj63smbVgiCINyb+jZYOcuQKwYzYsJoxxsqmkzQ0kTN+XJMJhPtbV0HLac28HR1ZZi7HLce3JDR3UXGMHc5ni6uOHW9yi55enrS0mI+KflGAau5uZn09HQMBgPe3t64uLggk4krbgqCIPSmPr82YFv9Ba7oUjAazBeobTe2c76o8wVmvQPHIHNx3OkPOtmOi+U+PdcecqJ1+PVvJyKvMjHgjPnttQ534tpDTriNGM/QaS9ImzowmUz85je/4fHHH0cuN1/GMzQ0FA8PD/785z/j4+PDkCFDmDJlCvv27cPZ2ZnRo0fj7OxMQEAA999/v3SVgiAId8y9cG3APg9WAE3VlRRs+53tuRPQbnQ8Edg7wBeZq+P8z6BTJlz0Jkw4ce1BZ9q8nDrd/8poNGI0mue85FUmBpw1mYcelc5ce7Bnwcpq5cqVhISE4O7uLq3qxMnJiUmTJjFmjN1tWQVBEPqACFZ3kt2fNRqaOP7mLx2qAe5T+eLi1jlh4TvZg9Q5DyE4OBhvb/Ocl9Wfk95mU9LbHQUmeGLq/STGPA5wU8HKZDKxatUq1Gp1p1uYSAUFBeHj0/X9mQRBEO4kEaz6kLG5keN/WuoQxLoLViacOCN7gHqX4Z16Vns++Yy9n3ScuzXv8XGse16Nq4t5jutmghWWW4Y4Ozvzhz/8AZVK1ekGkVgClbe3d6dtEQRB6AsiWPUxY3MjJ/68HFNbKwDOMmdGPXAfLnJXaVPaccYz+OfIvR1vjN7a2saWt99l08b/5Of/Op5Xn3sUd7eOua+bDVZWTU1NyGQy/vKXv+Dt7W2bs/Ly8sLFxUUEKkEQ7pp7IVjdOKWuD8ncPXhkxWZkcvOQW7uxnaqSC7Q2m4OXPWfaaTz1KcaLp3F1dbUtHh4DkLu7szB0AqsiJzsEKvmICQx+7FmH9fTUgAEDcHNzw2g02jIDZTIZrq6uP+pAVZqRSarqX7pcSjMypc0FQRDuiH7Vs7Jqqb9MwX+vpe2aOfVP5ipjxLhRuA5wkzbF2c0DJxfH8gZ9A22GJhQDO8rlI/1RTHkaZ/lAh7Y363p3Cv4xKfy/nZz97BDNV2qR1dWhmnA/Xxw7CcDjUyZRVPI9xiFDcB82lHFPzCbg3yKlqxAEoY+IntVd4jZ4OAExr+Pqab5KurHVSPX3F2lp6nwtwPaWRoyNdQ6Lh4vRMVCNfgjF5KduO1DdC/57/4d89Mc/0vyPL3C/dAlXvZ77fe6juukyP/mtNz/5rTfVTZe53+c+XPV63C9dovkfX/DRH//If+//ULo6QRCEXtEvgxWAfOgIHvr315APUQLQ1tJGzffVXPi2EsM18zlaN+LuM4nhs5bj+fCTOLt7SqtvSWVBCZ+8+wHv/3kLlWfLpNU/aH/NyuBw5UEKcw9gLClFAQwARgw1MeQnrUyY1MaESW0M+UkrI4aaGAAoAGNJKYW5BzhceZC/ZmVIV3uLdKzwD8CvmyUoNIoV6fnob+Jk7+sz/715KRXSig5lqcy7UZubYWzgeEosm3TSih+7ClIW2H+fEaTc4j8lfVY8ak0yBV39DoylpDzdzfdlrCFzQzTTJ5m3QaWOYt2BChwOh48ldL9uoc/122AF4O51H8rx9zHqgftwdXelraWV1uYWLpfXUPXd+U6LaWggw2bE2pZBgbNxGTwKmccQ6apvWWtTM+Nba3iktQpPk/kqFz8GmV/qSD+2g8FNF5gwTEFrUzOtTc3IXWRcNVzE/3EXyg5UUXagCv/HXbhquIjcRWZrN2GYgsFNF0g/toPML3tx7zslmq3JyY7L60sJURSx7/UoNIm3dt3HfqFiF+uSdJTfS/caLUtlnv9sEovsC4tI1ASwIsu+rAcadSSuPULIa7EESi8aYyglbekLJJ6SlAPQQPZrT7Ms9QzKqDVsTV7D4gcrSIubzcKU0o5mU+L4nf+7/Gqzw8YKd0m/DVZ/+c0q1v9yKfr6K7h5yBk+ZoRtzqrN0EpLo6HT0i7zwHWot23pzSBl9Yzam2cXPsrTUY8z8HIetZ+n0FJ9RtrsB+flt99g/LgWHslqZsq14bgPH4rzsCEMHT2SivoWqv9RQ/6XD5D/5QNU/6OGivoWho4eifOwIbgPH8qUa8N5JKuZ8eNaePntN6Srv3W+asLmahyXqDi27t3NShVUp6Wyr1H6IuGuyYo395YWpNL5ujSQvWUjBQCqVRwpLqS0+BCrVea6fQdv7iCnYHsCO71iWTnLfJUZMwPVuaks0YSzTldjV27nWDIr9tQQGJ/OrteiCJsbxeoPPmWzBgo2pZJta+jJ/GVL4d31pN34utnCHdYvglWroZntr660LX966f/j3NdfUfNdIemfnOByXRNuA9wY7uOFWxdJFlYHPtnL75cu5/dLl7Pml8vJ/OtH0ia3pP7Lj6k9+j5n/vpnhhlrGTl6KC5AW10VLTVltBt+HHvLpV/cz5jaATSWlTNOMQi5mxvVl2sZ7xVIrnY0T32SxlOfpJGrHc14r0CqL9cid3NjnGIQjWXljKkdwNIv+uhSUzI/wp7wAyq4VN1RbCjTsi5Sjco/AD//YIIi40nLb7B/JdDA8ZQ4Zj9qGVJ8eiM5lst49ZrafNLiowiyG2ZakZ6P7c9kxeOnMe+498UG4OcfT7Z1eCxeutPuorxKy7rIUIJUHcOinYax+h0de/aYH82Pi8Z8yWcfYvYWUlpcSGlSqGPz62nU8s62CkIWzbOsx6IsnSXPbyS71o+YD9Yz377OovzbCuSKUBYvsD+J3xOfUZ4gvUfexAgWq/LZtC3PsVzoc3c1WF2rryf196/xwR9+z3fHv7ItBf/8JzKTEbmrM3V119j1WQHVVxpx85Az1McLNw/7I6kOlWXl5Of+k+KvvuRk3j/5+H93sOmVlWx6ZSX73v9fafMea71cRsulMzR8X0h7SzN1F65wtfYqVyovU332Is1XezaH9kNmqq2lOekvNCf9BVNtrbT6LjBQ+E0poEDhYSnRJRA6J46djdNZmZTM1qSXmdGoZV3kk6zI6ghYx9c/ycIkLfWPLmVzchIvTTjCsheS6bX+sV7HivAo1u3XMyMuyTbMtO/1KDTxOnPACohm69pwfIHJMclsTY7G8YzB62jUsSI8jjR9AIvXJrM1eQ2Ro8zDWCsO9ONwlZXBPgBUTMQ8/3erc1aGrAwyjWoWzPSS1Mjx0axily6D1VPN891SvlHbyPtqG5HWakMDJQfW8mp6A8rIcEIcWvsQNk+F/qN0Mn8cx6Q/WHctWDXUXuGvSX+kKPcLvv2y+6MWuYszl2uusudQERdrriH3kDP0vmHIJQGrsELP+ZpGBrg44eLshJMTVFVe4MTn/+DE5/9A+/HHJP/2VT7ZnuLwups1ZPQwPJUKhvkMRzFiMAOHDcJF3vkqGz9E10pKMTY2crbJwLnySkY4OzF86GC+r7iAetJDmGprMdXWop70EN9XXGD40MGMcHbiXHklZ5sMGBsbuVZiN+Z/pzTWkJMSxx+1gCaCOUqAIt5Zn071rPXk7U0i5ikNYU9FszlDx2ZNDfs2vGcefqpKJzGtBuVT29Bui2P+3HBikjLYFYa5vhfkvLWKfdUqVn6aweaYcMswk5ZdMT5U70lgexEwSkVYqAoF4POohrC5KrretXYhN4N9ej9W/tc2VkZpzOv/8G1ivOXkHM3r496VJFki1pJgU7SR6XYJMY7zUUUkxlqGA63PNTcTsAxkHtCC/1QmSz+0sVFs3RLNZHMi8Q2Vp0TgN0nN7LjdlE9fz661oUgPhX2Dg1EYtRwWNxq/q+5KsKqvrmb35j9fN0jZk7s6U32pgYysb9mx9yQ1V1sZct8w5APNF5gtrNDz1Zlarja14urc9Qm6tZeq+TLrMH/f/Qlbf7+Orb9fx0fv/Je0WZdqKy9z+Vw1xtY23D3d8Rg80GFxkVxw94eq+FINw52c8HF3o67hGpdrrkCdnvrLVxjY2HFYObCxkfrL5rrLNVeoa7iGj7sbw52cKL7UzTzBrdoT2ykT0C8olEVJebhr1nDorXAUAKU6MstgwlDIOaQl84B1yaVe7gNlOnLKwPBVHsfxIfL5UPPrLCYsjibM7vmty+dgRgNooonxsy+XM/n5F5hMBfs+u80J+9He+FLKB4nJZBc3mIOTLIjVh0+Qn9B5Z9sv2eastlmG6opI3CId/uxOKd8VAgEqJkirbpLBP4qtyUmsjgxCkbWW6c+lUiLN/hujIhAoKO4iq1DoM30erGovXmTvfyVTmHNUWnVdcldnqqr0lJ6tIfPId1Q3tDBk1FDkA925WNdMZZ2B5raO85vlMidkTnCt1fGuw/WXL3P0wEGOHjjI4f/3/9i+PsFhSVn/Rz5+608Oi7G9heaGJtotV3P/sTpvaMVrpBfjhipQuMiorddTVX2Z9pZWDBcu0mxZDBcu0t7SSlX1ZWrr9ShcZIwbqsBrpBfnDZ2vNnJb7LMBX48mZBSgDOWNvbkc2RLFBOue+fszlAAlO9eyLC7OYVmXUQEUUVIGl6oqABUPOAQSwMOHEfbR65bpqdeDr9/4zkFjlA8+QPlFu0m2W6FawpvRfuh177IkXI1qkprZ0RtJy+3vc1YdOuasQlkZb8mw2JNhl9xwPdWUV4LC8/a/sAmhEYTNDScmIR3tWxo4tZFXP5IccCmVKIGC4j4YNRC61efB6pq+jlNHP3coM5mgvrH7ndzV5jaM7SbcXZ3xkMs4U3aFgjpPygY+xMWRwTQNHEGL0YS+td0WsFwtQ4Et14kvV/V6juzbb1t0+/eT/7cDfHnwM4fFxV2Gk+Vmj/pL9VypuOywtDT+UHYR3WtrMnFR6ULtkIG0KxSM8hyEp4uMVhcZCoUn1Y1NlBefobz4DNWNTSgUnrS6yPB0kTHKcxDtCgW1QwZyUelCW1MvXhTFPhswahU7MrYxHx3rno7CPsvYav42y2R9F8ub152/l6PonVPx+oAnIa9lUJSfwY7XlxKmknMpN5V1z88m1Don1mfsEiSKCyndFm4utvWczMvmWdLX3T7f0dL5qtujmBvOfOB4fqG0SugH+jRY1V6s4vPdOx3KTCbQN7XSaOjoe3sOcOWqwUi7ycTV5jauNhvRN7VR39RGm9G8Ixw8ZiIjJs1kTMhcBnvfzwAXJ5zAFrAMRhPtJhjg4jgs2NZu4qqkt2XlBHjIpSdsQP3FOtvdiw/kniNdW0y6tpjSs9W4jwnCbZi39CU/OE0XjeRMH8QB/fdccJPhPHwooz0H8diY+/C935fCq00Oi+/9vjw25j5Gew7CefhQLrjJOKD/npzpg2i6KB1H6UWKUDanrSKQIhIXx5Nt3TOP8MYXOHHi+kNsI0b5AEV8Jw10jWcoqZSU3RIFgxVQXnqmcy+nqoIKYML4G9xKpqoax75XKSXFDgVmHn6ERMWxdaeO/Hwdm8M9qd6TysHb7LjdMePNw2kAZ0pvf0it/MKtDTnnbFCjejSBHOnP1GAwf2fdJxwLd1GfBiv95RpOZP3N9rzdEqiu2QUqgIFyGTJnJ642G7nabA5aTS1GrjW30dBsDlj3jR7JgAHuGAwtGI3tDHaX4TPYjSHuMlraTehb2mk3gbtMcnNGEzTZDRfaMwENTY5naDY0t9FQo7cNAZ74vh7d6cvoTl/GecJURv9kPu5eox1e80PlPcmFL5/0ZJ/+ey4YTQyZ/DB1AwZQdLKIaUM9HZaik0XUDRjAkMkPc8FoYp/+e7580hPvSX0wf+cXzV9WqqA6g98m6cw7mImzmT8Wyj9MJdOha9FA5itq/B6NY18tyNWhzJBVkPae1qEHUpKeSu9cljeIOeGeoE2V9PwMHP/gfY7jxQy1dAzSyh3FYKCwyGHeRK/N4KDd85LUaIImRTme+yP3wmfUYLuCfmishgWWEb+CpLctQ346NiVZDjCeCmeGXfPuKfH1Bn3trUXlCeMDMOjT+eCA4ykN1t9A2DS1QznV5oOHQP/uvjehL/RZsLpSdYHczz516EGZTKZOgcrKHLDM//d0d7EtLW3ttLWbg42zkzPOzs44OZmzBocPdGW0wg2vQa54DXRFOcgVd9eOt9jWbu5xeUh6W1YmkyU4NXUsV5vbOFZaS3Or43be7wFjHpmK+/BRDuU/VMm/WUX5Xjlug6BwtgcZTlUc0OWS0VDGp2o5J1vaGBo0iaFBkzjZ0sanajkZDWXmNk5VFM72wG0QlO+Vk/ybVdLV97oJ0RvNJwXvXMM6nQFQ8eJr4Sj1GSybFs66dC2Ze1J59fknWZbRQGBsHPOHAsoIVq9Uoc+IQ/P8RtIOaEl7PZx51h1mD5R/tpFX16ztvGzRUQ2EvLKR+coiNj0ZzoqUDDIPpJP4vIaFKRUon0rgpSDLijwUKIDs95PZd6CIaryYGa4GfTornrNs24ZoNK+cwdeykweYMCsU37Z81kVG82pKBpkHMkhZE8WylAqUkdEskGbI9aVZSeahv73WOSl7PsS8vcrSu8pgiX8Afv6xtnT21cuvO05rR8XEYOBE4S1lcCoj1rJ6ImSuepJFG9LNn1+8+TegfGobf5ormW08V0QBnkwOvkGPWLij+ixYVZ8/T/a+fVj7NO3XCVRWA+UueA6QLO4uuFgy/ny8RzExwJ9hQzuuVCF3ccZroCveg91QDnLFc4ALg9xdcHeV0dYOBqOJgXYBrCsNlh5cQ3MbJhOcOFvHlyW1fHWmlmuGNsZ6QIAnDOqDTkRf+VnoT4jR/IKWU0NpHOBEkVrGnked+OIhZ773ceWzR2TkFhaTW1jMZ4/I+N7HlS8ecmbPo+a2jQOcaDk1lBjNL/hZ6E+kq+99Mj+W/yWOQGrY+dpGjhtBMSsJ7c41zFdVs/P1OJbFb+Tg9z4sTj7ELrvUvAkx6RxJjsL323TWxcWReEBB5JY1XZ5A2hX9KS07d+7uvBw6QzOWocqMdN6YpyA7OZ5lcQmkfevD4g0ZaJPsshCVs3kpWgVfvsuKuDXsrQRl5NvsitcwuDSVdXFxbDqi4MW091n5oN0GjI1m1971zB91hoOb4lkWF0/iQT2T49PRvtHPswHHRrPflgFoFc57xbuJGetQeF0zZmmgMo/jt3JlCZkfMR8eYuuzPhSkJ7AsLp5NRxSEvZ6OdoNjlihAQbYOvWw6M60HGcJd0Se3CKm+2sL+fxRwYOfHtFyt58G6U7S1m7hUb8CEOWPP09WZ0UPNqeg3cuVqC0sTEnls1kwA3v9TEl9+upeB7p2jR5vRhLHdhMlkot3Ti0n/Op1Brk7UXb5MTuYhafMbuni1lX8dZmK4G4S/+Q5j1dOkTX6wLl2q4a8Zn3K44u+UX77AgOHOKB9ypa3ZxLXv2hjx2VVzuycGMfABF1zcnag+3UrT5XZ8h49mps9P+UX4k4wY0bsT34LQSaOOFaGxVLyiY1fUnfy9FbFJE0HatFTyX5cMD/Yj4hYhvaSirpnMEj31Q8eRr5xqm4PCmmBxvZQ9wG9IO6rh5mWga89j62V3JaXuYzjvNJgyz/GMe2A8S+N/zaJfr+DZ5cv52cKFPD6nZ2fXTJszh58tXIjn0B6ebfgDNGKEF8/MCSNkxE94yPkRRphG03ipjatVRq7VuyILDUEWGsK1eleuVhlpvNTGCNNoHnJ+hJARP+GZOWEiUAl9wyOUFxf7cDx1xy0NBfZY7m7SyoJYGdt/A9W94o4Hq+qrLXxz/irNjdfQnylk9OUi2tvNiQwmEzS1tePh0v1mNLcYeVhp5CcTTEwbY2SIvOfB6vzAsZy+/2foVT/lrP8cLg3tOIXQa/QoXvjtKhatiEOt+ZnD66ymzZ3D9PnzmD5/HoteWcELv12F16iR0mY/KqPvG8WiefP43YsvMnPMLFryRsLJkdzv5M/vXnyR3734Ivc7+cPJkbTkjWTmmFn87sUXWTRvHqPv+3HM3wk/DIEvriGyMZ3tWZ3yLntJA/vS0pEvjmex+GnfdXd8GPCfZfVs2p/P5YpzFNe2MbdgOzJnJ/RNbRhNcLGxjfsGuuAEDsOAza1G5C4yhrq1MG6wiUkT3amsaOVoKZTXtfOrxOsPA7YZTZQOuJ+LgXPxfSiAC3oDIzzd2L2k88BzQ10d//fWX6TF/MfvVuMmd5wB+OXTUfhcLPpRDgNKVV24yLlz5hRjd3d3Hn7EPDX+zdcFNDebr4c4ZowPo0b/uAO40H/ps+LRbPDmvYNxnW8TcruOJaB+Gbbq1jC5t9fdy+6FYcA7Hqx0Z2pJ+O+9uOd9woXRQTxW+Xf01l6V0ZydN1Tu7BCsxijaOVbRysOjXZg5pp2jl0Ad6MbxwhZOVpjQG0y8tGHDdYNVc2s7VXjSoPopno/97LrB6mbcS8FKEIQfhnshWHU//tZLWvS1XC0vwctQzYMlmegt5zEZTSbqDUaGyjtvwgzfNgJ8nJnpDwMVzsx5VM4wT2dmjnNigpcLrpJzp7riKnPC4DmSy4NvIsVIEARB6Jc6R4pedLW2FtMpHT+p+ZzBHi64Wi5ZBOA+YACTpgQ7tLcX8bgcxX1uyLzccOrmvKjraW1rx73+PCNqS6RVgiAIwg/MHQ1WJV8fR5uWCoCrzJnBHh3DdMNHeLH2z3+0PTcBLW0dWYGmlnYqa4y0NLVjMrRz4bKRm7lGqrubDP19E/lu+MO01Fyg5WoDimuXpM0EQRCEH4A7GqxuVk1DCyYT1DQ5U3WulfSsZs4Ut1D1fQu7dQZOV7XT0t7zXtaAtmsM+e5zrv3t/zB8cwS/b3ZxoazHN80RBEEQ+ol+FaysPit1YW+JKy0mZ7LOmR83tDpztNKF6saeB6sJ9UWoqz/nvroSJpZm8m3+1/xv0p+lzQRBEIR+7o4Fq+Zr12i4ckVafFOGD3JDZrm00tCBrg5zXj3l7ipDMaDzlS0EQRCEH46b3/v30KmjOvZve0daDIDMxYWhXuarbVru+CEIgiAI3bpjwcpkMt8CxPbccksQgNFjxrDmv7dhcnKmZYDjZSPbe/m0L+l2CIIgCD88dyxYtZqcaTI6Y409htZ2rlxtwdnZGfeBHgB4jVCSum8n7ZaA0m6CC3UGWi0Xn+12MUFbm5GW1lZaWlsxGtsxmujcrt3EVUMbtddabes32a77LgiCIPxQ3NErWORptbz3h9eRuzhz5WoLAONUD7H+g/+1tam/UktEaNfX5uuWswuzf/Es4wLMN/k5+ukBir76inZjG6b27m874uQkY8rjU3nz3belVT12r13B4mL2AQo3viYtBiBg1QZGzpgrLRYEoY/dC1ewuKPBqrniJEd3vMP7u/LBMhTop1Lxhw/et7UxXK0l6w3zDs+6ITfK95P/6294+F/n4jV0oEP5twe2UprVEQitTJZ1KlXTmBL9Z5ycbvQXunevBKuyj1Op+ts+jE1XcXOuYdwUGd8cNF995OE5Lpw9ZqSl3QvZgEGM+tl8xj4TLV2FIAh95F4IVndsGNAq8AElf/rtz3hj+U949cU5rHsvxVZXdbGG0Fm/AMDYDqsyPflNpieJ+RPZ8PXDbPj6Ya4Y5PgE3Id8oJz/KxnPhq8fpkRvnue62tjC5bpGTpVUUXmpniMXRrHh64fJvjCKwSMUeI0ZzjdXhvFGrh//mz8A3ef/5MVlv7P9faGzN9O38dG6l6B0F0M8y/CQ1+CtcubCOS+CEv+boMT/5sI5L7xVznjIaxjiWQalu/ho3Uu8mb5NurpbU7WbRaoA/KbFk+1wi3o7eh0rpt2gjZ3ylAj8/OMtt1Lv/LxPlaUyzz+AeSnmiwTfttp8UmKT7857uSUVpCwIwM/fukSQcounP+qz4lFrkinoakDFWErK0918zsYaMjdEM32SeRtU6ijWHajA4frtxxK6X7fQ5+5osGqsv8aV8hpkMmdkMifz/1060shNJhNtbR2/BGO7dXHCaDIvJrD1hNrtyuyZTCZbIoW53gmcnHCy9KqMJifznFW7CaNR/PK6s/Gj7ZxoPsKVS8cwnS9D3tqCi9HI4MGjGfVULEPu/4Yh93/DqKdiGTx4NC5GI/LWFkzny7hy6Rgnmo+w8aPt0tXevFERbH07HEV1Br9N0NE5FjWQnbCGfdVeLH47iRnSW7veY8p3rycxq1Ja3D+VpTLPfzaJRfaFRSRqAliRZV/WA406EtceIeS12M5XXDeUkrb0BRJPScrB/Pt57WmWpZ5BGbWGrclrWPxgBWlxs1mYUtrRbEocv/N/l19tdthY4S65o8HKZDLR3m6+hNKgMQ/iv2iVtEmXaqvLuXKxjCsXyzC2dVxjSV9bxZWLZbQamgA4f6me02cvUqs3P2+8WseVi2U0Xq21vcbQdJWr9TW250LX3vr4f8ipO0RATRWPjG7HaHLGaHLGY7gzly+bUNx/hdL/20Xp/+1Ccf8VLl824THc3MZocuaR0e0E1FSRU3eItz7+H+nqb5pCs5bNT3lRvSeW32Y0ONTpM9awZE8NgfHv88YUhyrhbsuKN/eWFqRSLq0DsrdsNN8sUbWKI8WFlBYfYrV56pl9B3WS1tdXsD2BnV6xrJxlfxsfA9W5qSzRhLNO182/+2PJrNhTQ2B8OrteiyJsbhSrP/iUzRoo2JRq10P1ZP6ypfDuetKqHNYg3AV3NFgBNDc0cflcNW11lTTk73GoGyxvZ9W0awDInGHdzKu8PvMqv59eb1u8PNo5X1xFS2MLLwRd4/fT63lguDmAjfMZxqOBvqgnjWG0lyc/HdfM76fXM2ucgYaaBi5X1hI0qpV1M/REBjbj79XGPEUuJz7oOmHgXvbuvnRmjrjC1NKrjGttYtBIZ5wULjh7yDC0XeHi4YMYnWdgdJ7BxcMHMbRdwdlDhpPChUEjnRnX2sTU0qvMHHGFd/elS1d/CzyZsSaB+UrIXPVCxzBRWSqLVmlh4ir+K8bPXGZs4HhKHLMftQwrPRrOog1aqm+yE60/ls6KSDUq/wD8/IMJiownLd8aKGvY+XznnXD1zmj8/ANYtNN+x2gZ5lqe4TisdCtq80mLjyLIbrhqRXq+rbeZHR/A9KQiIIMl/gH4xes6/n68dOffRXmVlnWRoQSpzOsPCu1iOKzX6Nhj2QXMj4vGFwAfYvYWUlpcSGlSqGPz62nU8s62CkIWzbOsx6IsnSXPbyS71o+YD9Yz377OovzbCuSKUBYv8LEr9cRnlCcYJe98YgSLVfls2pbnWC70uTserEztJhrrr3H5+ypaLn5HfV7HjszZCQa7dwzqDXE32ZbAoNE8/Jg39z/sg/dDo/Gd6E3AFG8efswb35ZM6v6xmorMlZzX/obz2t9w7uArDDB8ycOPefNgsDc+AffhE3AfE4K8Gf/AUAa6mXB1hgHOBlrsel5Ch/CrVxnR1oaxuoXhQ424uDlxrdbEcGUr57Nq8V8wFf8FUzmfVctwZSvXak24uDkxfKgRY3ULI9raCL96VbraW6cIZfPbUSiNRST+OpVyKkj59UYKBoaz9X3rzq6CtH8LZeGmEygj1rA1OZk3IpSUfBCH+plUSnoYsPRZ8WieS2Cffjork5LZ+noUgVUZrIt8khVZDYAXIaEqKNKRU93xuoKvzDuxnNwTHYXVeRwugpDpU3G8dedN0utYER7Fuv16ZsQl2Yar9r0ehSbePDwa+Hwyb4T7AEHEJCez9fkA6Vq616hjRXgcafoAFq9NZmvyGiJHmYfDVhy4A+EqK4N9AKiYiHne7lbnrAxZGWQa1SyY6SWpkeOjWcUuXQarp5ovPCDlG7WNvK+2EWmtNjRQcmAtr6Y3oIwMJ8ShtQ9h81ToP0ons9GhQuhjdzxYYRewar6/wNWyQr778C1pEwfeqvuQD3TDVe7a5eJiukp74yVar150WGhv6tTWVe6KwssTL9/h0j8jSJgajWA00dziRMs1E66ydlzdwHDNxECPy5jyVmHKW8VAj8sYrplwdQNXWTst18yvwWgyr6M3TVnDjpUqOLWR/wiPJfGUF/OT1hJmmacyHNjIumNKYj7UsuO1KMLmalj8Wip5Hy/F99RGNh3qwU7XmMem+AyqVXEc+jSJmKc0hEWtYoc2nZixNezb8B4FgO/UUHzJ44uT1hfmczgLlEov0OVx3FJqyNORQxBzQqU70puT89Yq9lWrWPlpBptjwi3DVVp2xfhQvSeB7UWgnKhhRoAn4MPjczWETbyJv5mbwT69Hyv/axsrozTm9X/4NjHecnKO5vWwdyVJlojNMBcXbWS6LRhJ56OKSIy1DAdan2tuJmAZyDygBf+pTJbGo7FRbN0SzeShkvJulKdE4DdJzey43ZRPX8+utaGdDjB8g4NRGLUc/kpSIfSpPglW2AWs6jOVGGq7v1WH90OjcfeQ31Z6uZSzzBlPr0EiYN1AY+E1nJrauHjFjarTRoa4taDwggun2wkI7fg+AkKduHC6HYUXDHFroeq0kYtX3HBqaqOx0Dys25smxGxk9UQoKS5FufhtNs/ytNVla7Xg4cfgCzoyD2g7lvIWlEDm4R4M3+Rr2auHsBdfYIL9RL08iBejg6DsUw6eAiZOZ4YCso+aT8Wg7ATH9X48/0oEvvoTHLfsbHN0WlBpmDHKbl03LZ+DGQ2gicY62mkmZ/LzLzCZCvZ9dpsT/6O98aWUDxKTyS5uMAcnWRCrD58gP6HzTrtX2eastlmG6opI3CIdtuxOKd8VAgEqJkirbpLBP4qtyUmsjgxCkbWW6c910RsfoyIQKCjuIqtQ6DN3NFgN9puIz8+etT03tZuQDfLC7+llNNdf4tj//tahPYDcQ37jE61ugbPMGVe7294LnZ0668F9Xi1MefAqrW1OnDtlou37Rtob2mgt6EhyaC1ooL2hjbbvGzl3ykRrmxNTHrzKfV4tnDprvjpJr5L5EfaEClDx4vNBdhUVlJ8xD2dtiotjmcOSau7plJzpcqLfQb0ePT5MuL/z7lk5ysf8dy4BBDFzFuizjlAAGE7mU6CYSshTwQTLijh20mDrbfmGTnWcS7lpeur14Os3vnPQGOWDD1B+0W488laolvBmtB963bssCVejmqRmdvRG0nLv1JxVh445q1BWxlsyLPZk9DD9vprySlB43n4a6ITQCMLmhhOTkI72LQ2c2sirH0kSM5RKlEBBsV2moNDn7miwcvHwxCt4ukPAksnd8Rg1lvbWFvQVp23lTk5O3Oc/CifLVdbvBPlAOcN9hkmLBTsu/oNwHuaGj7IFVxcTZ8+bd5Umg5GW43W0HK/DZDAfep49L8fVxYSPsgXnYW64+A+SrK2P2I7Su1g+se4Ue0dIqAYqdeSUQU6uFkLVTJYF8PhjkJmbB6eOkK33ZMYMyw64X/Mk5LUMivIz2PH6UsJUci7lprLu+dmEWubEbswuQaK4kNJt4eZiyXeyeZb0dbfPd/RNDHn2gGJuOPOB4/mF0iqhH7ijwQrAdaACr+Dp+C9ahf+iVYyZ+7y0ic0AxQBpUbdqL9Rx4bsqh+XqlesPQclcZMg93KTFAtB4wchH/kPQFbigl7njOtIV5ZBWAh9pw3uyKydLPPimyJ1vitw5WeKB92RXAh9pQzmkFdeRruhl7ugKXPjIfwiNF6TjKHeKkhE+QFE+J25n8nuwAgUVlHzfuT9RXVUB+PHA/ebncnUoIRRx7GQex45CyNRgwIvJ0/wgv4jMXB3linksuO2UegWDFVBeeqZzL6eqggpgwnj7bLYuVFXj2PcqpaTYocDMw4+QqDi27tSRn69jc7gn1XtSOXibHbdOxpuH0wDOlN7+kFr5hW5S028gZ4Ma1aMJ5Eh/pgaD+bMWu4h+6Y4HKywBa/ADjzD4gUcY5PuAtBonZydGjh8hLe5W7YU69Jf0NNY3OSy1F+puGLCErhkNJtofkZMxVsGRcjfq2uR4BAwEhSt154x4K1sclrpzRlC44hEwkLo2OUfK3cgYq6D9ETlGg/S07TtFTli4BtCyPU0yRFP6LvP8g5m9pQfzOkEaFiggc/v7jvMVhny2p+aDcjoh1nkjpZqZKsjckUx2pQ+TA8xH9xNUwVC8m8SPimBWKJPtVnNrgpgT7gnaVOzPUwUDxz94n+N4MUPtMJllxx3FYKCwyOH96LUZHLR7XpIaTdCkKMdziORe+IwabFfQi8ZqWGDpcBYkvW0Z8tOxKcnyHT0Vzgy75t1T4usN+tpbi6YTxgdg0KfzwQHH8/dK0lPJBMKmqR3KqTYH/UD/7j5voS/0SbC6EScnJwYO6dlchzVQtbVKD4ugpamFlmbzBXOlDNcM1FXVS4sFi1/+/GmunZZz6T43/j5iEJ/XuHPmtIzcKjc+c/KgyejCiIfdGPGwG01GFz5z8iC3yo0zp2V8XuPO30cM4tJ9blw7LeeXP39auvo7Rj47jtUToWBTOOrYZPYd0JKWHMfsBckUKDWsXtyD4TiZmpVJ4SiLkpn9ZDwpe7Rkpm9kkSaKlDIv5q+PtQs+PoSE+sCxfApkaqZMtBQ/qiaMCsrLICxUsrPrRvlnG3l1zdrOyxYd1UDIKxuZryxi05PhrEjJIPNAOonPa1iYUoHyqQReskzfuSsUwBG2b8og81QN4MXMcDXo01nx3EbSDmhJ2xCN5pUz+Np9HBNmheLbls+6yGheTckg80AGKWuiWJZSgTIymgXSTLuemJVkHvrb29Xwqw8xb6+y9K4s54X5x9rS2Vcv7+l5ViomBgMnCu0yCntOGbGW1RMhc9WTLNqQbn7f8eHMSypC+dQ2/jRXMkt4rogCPJkcfIOerHBH3ZVg1VxfzenPur4x4/XUXqij3hKoxk57hkmRaxk6zn7CHRrrGrla69i7am12QV8to+FyK9fq3B3qBLP/eGYh04bPoL1iEGUj5RweNpC/XvXgUycPdCM92e82mMqLblRedGO/22B0Iz351MmDv1714PCwgZSNlNNeMYhpw2fwH88slK7+zpH5EfOxjq3RagZ/9S4r4uJYl5ILoavYldHzSzEpZiWh/XAN8xVH2BQfx7LX0ykYFcWbGZ86ZB8CBM4IRQEwS91xTo5HEFNUAGpmqjulRHRJf0rLzp27Oy+HztCM5TyzjHTemKcgOzmeZXEJpH3rw+INGWiTLNsAKOfEEjMRct6NZ9nv91MOKCPfZle8hsGlqayLi2PTEQUvpr3PygftNmBsNLv2rmf+qDMc3BTPsrh4Eg/qmRyfjvaNO5QNODaa/bYMQKtw3iveTcxYh8LrmjFLA5V5HL+VK0vI/Ij58BBbn/WhID2BZXHxbDqiIOz1dLQbOj5Xq4JsHXrZdGY67mqEPnZHr7renatVpXy+Kcr23FnmzLjg6/9SrYHK2Gpk7OMLGTc9igHD7uNK6Qm+y/xvrpR2nJQ5dPQQhnmbT7RovtpMXVUTzs5DGDZqLG2tTrS5yJm85A27tffcj/mq6+XllWz76CNOteVxuakOZzcnBvvIaGsxQWUbIV/UAZDz+BDwdsHFzYn6CiPtLSaGDxjCRBc1sc8+i6+vt3TVgtC7GnWsCI2l4hUdu6J6N9HCURGbNBGkTUsl//We9ZjvBnHV9T7g7OzMcJ/rn8FXV1VvC1RjHo/gfkugAhjmF4znKMex5EZ9E9fqzDPuzjIZLm5uuHsMY/jo+/EcOhwX1zs0Jv8D5+vrzdLISCbK1Awq90XRMgQXmQkno4m6Ble+8HmYL3wepq7BFSejCReZCUXLEAaV+zJRpmZpZKQIVELf8AjlxcU+HE/dcUtDgT2Wu5u0siBWxvbfQHWvuOvBysnZCYVS2vHuUFdVT11VvTlQhTyN34zFeFgCldWIwOkMsxsONFwz0NTQDICpvR1jWxsmk/leTML1jRnjw9JnI0mK+zUzRv+Uik8GUn1oEF56X5Lifk1S3K/x0vtSfWgQFZ8MZMbon5IU92uWPhvJmDFiTF/oO4EvriGyMZ3tWZ3yJXtJA/vS0pEvjmfxbZ3gLfSGuz4MKHORcX/QGGkTAOou1lN3oQ5jWztjpv4cv5/+OwOGdP2rOb0/mbO6D23P3QfKGXrfEGSuLugvGWg3DkIxfATtRjfa5XKm/McfHV7fUz/mYUCpqgsXOXfOnGLs7u7Ow4+Yp8a/+bqA5mbzwcCYMT6MGj3S4XWC0Ff0WfFoNnjz3sG4zrcJuV3HElC/DFt1a5jc2+vuZffCMGC/DVb1F/VcOV9Lu7EdX/UCHtDEIB/cfXpS9ekvOPP396n9/htbmTVguQ3wpLHeSLuxiXajHCf3oah/dWs3CryXgpUgCD8M90KwuuvDgF2pv9QRqHwem8cDs1+8bqACUD70OH6zXmDo/Q/bypqvGbhyvo6WpgYGeLYCLRjbrji8ThAEQej/7nqwMrWbqL+kd1guV1wxB6pHn+TBJ36FXNGzbJ8RqscZ/sBjDmUGS8Cqq6rncsUV9NWOJwIKgiAI/d9dD1bt7e3UnLvssJjaTdw3OYwH572M26DrZwpKDfZRMdjX8Z4+hmsG9DUiSAmCIPxQ3ZVg5TLAk5ETp0uLbUY/8jMCf74KN4+bTzEfEfATJvxsCYN9ur5ygVzhxXB/kYYqCILwQ3JXEiwAmi5XkvPnf5cWc8XNi4d/8XucXW/vShM1p7+gJm83Hm2OPaphEyYT9B9JDmU345dPR+F6rojxAyEiSSRYCIJw990LCRZ3JVi1GxrRF+ZRfdp81QmTsY3LXx0F4JsHnqDd6fbzRF0b6xlxuYQRbi0w6n7cXF3wHChHPmgwng8EUe/edcKGkxOMHds5O9Hql09H8e2pIiYqIO4/38E/RAQrQRDuLhGs7oB2QyP6/MNc/lsao575DQDG5maOvfYSAN/OicUku/2bJA49m8/Iwn/gNCEIQuYxbIgH4/2UGM6X8P3fdlE0/DH08s53DpbJZMydq5EW26xZtoLvvzsDQFLKO6hDRbASBOHuEsGqF7W0tFB36SLy8yep2v0XAEwmE62NbZjaTVwuM18RvbeDlZXbQFcGjx5ku1two6uCQq+p6N1uLoHjUPpOrlwy35rgt3/6A7PmanB3v70hS0EQhNtxLwSrPkuwqK/X80XmZ+T9z0YuXW3n0tV2LtYb+a5Ez9fFeioMTtS1997mGExOVLc5U2FwoqrFiUsNRsoqGm1/W3+lFs/SL6Qvsxk5cgQjR47A2dlxmwZ7Dcdr9Ci8Ro+i9GwZV66YL+4qCIIg3Dl91rMCOHO6mM1r38BvcEfPyWiC01dacXKCgGGueP9sHldq67ndzbpadobSr7/mwrU2Bsud8RnkgtzNDU+F+XYPTW0mLjkNZNrc2dKXAhCxcAHOzs7s3fspLYau75H1k38NYfTori//9GPx5aGveG/d/0qLAVjyxr/z2OxHpcWCIPSxe6Fn1afBqqd279pLS2urtPi2ed83mtDpYo6pJzLTtOR+mkfTtWYGG64yZ6yc/z5lvpL9Lyd6cLDMQL18EAMGujP1STVhi7uf5xME4c4SwUq457yZvo3mr+t5TN/KlYu1VDe1M2WEK6dbDUx/wRysjrzvwUOuco5dakU5wJlhI4fypcIV90cG82pUrHSVt6YslXmajV3f/kHhxYRJ81i5YRVhfdmxzYrHL/YMq7U3d6PALmXF4xebwfxthWyeJa28eYYyLYlbqolJiuriDr39TQUpC2aTaLmbPahu+TO97oVsjaWkPBPO3icOsT9GckcAYw2ZSatITM+j3ADyoUFEvp7E6rk+HTedPJaA+lXPrtfdz9wLwar3JomEH7yNH23nRPMRzp4/TU1lI+1tctqNLgwc5ob6aT0PepTxoEcZ6qf1DBzmRrvRhfY2OTWVjZw9f5oTzUfY+NF26Wpvz1g1kZERDsv8Se6UH01lmSaOTL30BfemnC1xpH17p26V0YvKUpnnbx+oAIpI1ASwIsu+rAcadSSuPULIa7Gdg4mhlLSlL5B4SlIOQAPZrz3NstQzKKPWsDV5DYsfrCAtbjYLU0o7mk2J43f+7/KrzQ4bK9wlIlgJALz18f+QU3cI90p4fMAg2i3/3TfIidJresYPvcTe3Z7s3e3J+KGXKL2m575BTrZ2jw8YhHsl5NQd4q2P/0e6+lsXHM2bCesdls2ph8h7SwMGLYmpYkfSr2TF4+cfgN+CVMqldUD2FktvWbWKI8WFlBYfYrXlYjP7Duokra+vYHsCO71iWTnL1hcCDFTnprJEE846XY1duZ1jyazYU0NgfDq7XosibG4Uqz/4lM0aKNiUSratoSfzly2Fd9eTVuWwBuEuEMFKAODdfemEOrsz6uuh3FfnyRiFE0MGtOEpb8e5qZW8z4dg8PkFBp9fkPf5EJybWvGUtzNkQBtjFE7cV+fJqK+HEurszrv70qWr73WKueHMB8orqy3DSgH4xUt3dtJy6/PdZL8+G5V/ACp1PPtqdazwD2BeSj7HU+KYPikAP/9ggiITyCy7QW/F2MDxlDhmPxpg3kk/Gs6iDVqqjdKGt05/LJ0VkWpU/tbtiict33plFvN7WrIHKNrIdP8A5qVUWIJGBCllkpV1UV6tTWBhqNq8/So16p6871uiY88e86P5cdGW4UofYvYWUlpcSGlSqGPz62nU8s62CkIWzXMc9ixLZ8nzG8mu9SPmg/XMt6+zKP+2ArkilMUL7IcGPfEZ5QlGyfueGMFiVT6btuU5lgt9TgQrwWZO0QiUV92oanDFd4A77i5OVF1r50EPBZ/n+7EwLJCFYYF8nu/Hgx4Kqq614+7ihO8Ad6oaXFFedWNO0Qjpau+M6moqANykFT2wfy3LctWsTk5i5YvhhFhOtStPfZmFyWeY8VoyW1+PYkJlOsvmRHXe4dtUkPZvoSzcdAJlxBq2JifzRoSSkg/iUD+TSkkvBCx9Vjya5xLYp5/OyiTzdgVWZbAu8klWZDUASmbEJxMzBfAO543kZFbP6vrqLF0xZMWjWZ6O3j+KN5KT2bp2Ib6V6SybE0+meYqy92RlsA8AFRNJZZ6/JcB3FVRvwJCVQaZRzYKZ0jsyyPHRrGKXLoPVU7v+HHyjtpH31TYirdWGBkoOrOXV9AaUkeGEOLT2IWyeCv1H6b3/eQg3RQQrweZqizPGdieutbVR32LCzUnGABcn9AYTo43XaPlgBy0f7GC08Rp6g4kBLk64OcmobzFxra0NY7sTV1vu/E/KUJXHpl8lcBxP5s+6hYsSG0N5Y+d6Fs8NJyYmFOs+S39Fyeq9GbwRpSEsahW7DiQRRhGJb2npqp9hOLCRdceUxHyoZcdrUYTN1bD4tVTyPl6K76mNbDrU1atugjGPTfEZVKviOPRpEjFPmbdrhzadmLE17NvwHgXImTBNw+O+gELFjLkaQvzsh8WuL+dgBnr/OP4rJY7Fcy3ve0s0vi65HM7tyfZbeqvWwBObYS629PKs5Y7zUUUkxtonzxSRqLmZgGUg84AW/KcyWRqPxkaxdUs0k3t4rn95SgR+k9TMjttN+fT17Fob2pFgYeEbHIzCqOXwV5IKoU/d+T2L8INxvFJOU4sLZU3XyL3QxmBnD3wHufDFhVae8/ewtXvO34MvLrTiO8iFwc4e5F5oo6zpGk0tLhyvlP5Tv017Yjt2hJZFFRrNllMwYfHb/MFhvqKHVGpCFNJCYF4cMX52zxXhPDsPOKQjx67YKlurBQ8/Bl/QkXlA27GUt6AEMg/f5tBRvpa9egh78QUm2CcQyIN4MToIyj7lYJcJBD2n9PaB4h0kJuso0VuCU9AqjpzM481b+Wx7yjZntc0yVFdE4hbpMG53SvmuEAhQMUFadZMM/lFsTU5idWQQiqy1TH+uix7xGBWBQEFxhaRC6EsiWAk2Ry9XM36gJxrlaAzt7WSfb6a42p36Zhknygfa2p0oH0h9s4zianeyzzdjaG9HoxzN+IGeHL1svhRVr+kiG3D569vYrzvBobVquoo5tyrQ3z5SmY33V4GxkJJOR/0VlJ8xZ6RtiotjmcOSynGAkjNdJhn0WL0ePT5MuL9z0FCO8jFvwyVpzc0JjF5PjH8D2Vtimf1oMCp1OIs2pJNzR+asOnTMWYWyMt6SYbEnwy654XqqKa8Eheftf/sTQiMImxtOTEI62rc0cGojr34kScxQKlECBcV2mYJCnxPBSnAQOLoJr0Ft+A/yRO7szEm9+XJSTW3OfHHWky/OetLUZv7ZnNTXIXd2xn+QJ16D2ggc3SRZWy/oIhtwZVQogaM678DvqO4uV2nrIXSxfGLdIfdjCjWrM05QdDCVN5ZrCJRXk5OawCKNxjIndiN2CRLFhZRuCzcXSz6X3jiXTMp3tHS+6vZYk3aO5xdKq4R+QAQrAYDGC0bOTbnAR7W1GGVX8VYY8RngwRPeQ9CMlaGrucTfLlbzt4vV6GouoRkr4wnvIfgM8MBbYcQou8pHtbWcm3KBxgvScZQ+UlWNY7+ulJJih4LrKr/QOdX5THERKIKZ7C2tUTLCByjK58SdmngfrEBBBSXfd+7lVFdVAH48cL+0xl4F5ZK3VF5mvmOAlNxPzeK4ZHbp8ig6msR8RQ373j8k+Txv03jzcBrAmdLbH1Lr6vvqiZwNalSPJpAj/ZkaDOa5yVtJ2hHuOBGsBACMBhOKyW2cfvgSnxqu0GC6xhRvA0M82ii60s4DAz0dlqIr7QzxaGOKt4EG0zU+NVzh9MOXUExuw2jo64uiuKMYDBQWOcw36LUZHJTukK5Dvzfd8STjynS27wdFuIbJdsVmcsLCNYCW7WmS4aHSd5nnH8zsLbd5DliQhgUKyNz+vuM8iiGf7an5oJxOSOeRS7PBChQ0UPCt3Q7dWMq+PfbbVErK82pUz6U7BCX5MB9GmC+h2bvGalhgGfErSHrbMuSnY1OSZZueCmeGXfPuKfH1Bn3trYXSCeMDMOjT+eCAY8+xJD2VTCBsmiRpp9p8ENTVMLHQd0SwEgD45c+f5tppOaaxzRQ+eJnDpit8fvEqh1tqyRleTbOphVBfJ0J9nWg2tZAzvJrDLbXmNqYrFD54GdPYZq6dlvPLnz8tXf0d5sXMcDXo01nx3EbSDmhJ2xCN5pUz+Fp2jj2iz2BZeDSJ6Voy0xOYPSeBnGHhbH6l64xD+ew4Vk+Egk3hqGOT2XdAS1pyHLMXJFOg1LB68Y3/+Im0tby6potlZxHI1KxMCkdZlMzsJ+NJ2aMlM30jizRRpJR5MX99rC2IKjw9oehDNqVrySk1QFA4C5RwfP0LrEjJIHNPKisWRPCBTGU3NOlH2EwfDMcSCH9+rXn9e1J59bmXSan0IjIm3JYp2WOzksxDf3u7GgL1IebtVZbeVQZL/APw84+1pbOvXt7T86xUTAwGThR2fTmuG1BGrGX1RMhc9SSLNqSTeSCDlPhw5iUVoXxqG3+aKxliPldEAZ5MDpZcsknoUyJYCQD8xzMLmTZ8Bu0VgzD4NHJqwhX2DLrIF17VnL//CsdGnOd0QwOnGxo4NuI85++/whde1ewZdJFTE65g8GmkvWIQ04bP4D+eWShd/R2njHybXfEaBpemsi4ujk1HFLyY9j4rH5S2vI6n1rNjroGdG+JYtn4/hK5iV0YSM7qbx5f5EfOxjq3RagZ/9S4r4uJYl5J749fZKT+6m507u1i+MvcaFLOS0H64hvmKI2yKj2PZ6+kUjIrizYxP2Tyro/szeVE8YWOr2fd6HIveywNZEG/sTmbxpGoyk+JZtnYbFY8mkfHncIekFN/odA5tCMf3+0MkxsexLH4jB/XBrP7wU94MvQPzgmOj2W/LALQK573im7s24IxZGqjM4/itXFlC5kfMh4fY+qwPBekJLIuLZ9MRBWGvp6PdENopaacgW4deNp2ZQZIKoU+JC9kKNuXllWz76CNOteVxuakOZzcnBvvIaGsx0VzuzMC/DQHg2s/qcPdtx8XNifoKI+0tJoYPGMJEFzWxzz6Lr2+nCZ5+TscK/1j2PbXt5q6iINw9jTpWhMZS8YqOXVG9m2jhqIhNmgjSpqWS/3rXPez+QFzIVrin+Pp6szQykokyNYPKfVG0DMFFZsLJaKL5mom2h9xpe8id5mvmMheZCUXLEAaV+zJRpmZpZOQPMFAJP0geoby42IfjqTtuaSiwx3J3k1YWxMrY/huo7hUiWAkOxozxYemzkSTF/ZoZo39KxScDqT40CC+9L0lxvyYp7td46X2pPjSIik8GMmP0T0mK+zVLn41kzBgxpi/0ncAX1xDZmM72rM7Zkr2jgX1p6cgXx7O4L29FI3RJDAMK3aq6cJFz58wpxu7u7jz8iHlq/JuvC2hubgZLcBs1eqTD6354xDDgD9V172d1u44loH4ZturWMLm3193L7oVhQBGsBEEQfuDuhWAlhgEFQRCEfk8EK0EQBKHfE8FKEARB6PdEsBIEQRD6PRGsBEEQhH5PBCtBEASh3xPBShAEQej3RLASBEEQ+j0RrARBEIR+T1zBQriuopJKPs3OlxYD8OSMIFQTxIVrBeFuuxeuYCGCldClf359hlPfVdDS0sagge5Mm+LP7oP/BCBizr9w9FgxV6814+bmwsQHfPiXR8ZLVyEIQh+5F4KVGAYUHLyZvo3N6R9jMpnwHT2MYUMGEqQaw8mib3hm6uc8M/VzThZ9Q5BqDMOGDMR39DBMJhOb0z/mzfRt0tXdmrJU5vkHMH1TF7eFt9T5+c9m0ylpJRRsmo2ffwQpZRWkLAjAb0Eq5dJGDnSs8A/AL15nKzGUaVkXn36D1/VQVjx+/gGsyJJW3Jpe3ba7xvLd+FuXCFLKpG16Rp8Vj1qTTIFRWgMYS0l5OoB5KeaLMTvW1ZC5IZrpk8zboFJHse5ABQ7Xbz+W0P26hT4ngpVgs/Gj7ZxoPsL55gou1zfS2mbC2A4yLqMaomVM3XHG1B1HNUSLjMsY26G1zcTl+kbON1dwovkIGz/aLl3tzRs7lRneUH40t9NOuTpPR4EMoILsXOlOqIaCryvAO5SQm7jrrFTOljjSvr1Tt524Pf1523qkLJV5/rNJdDgOKSJRcwsBvVFH4tojhLwW2/mK64ZS0pa+QGIXBzTQQPZrT7Ms9QzKqDVsTV7D4gcrSIubzcKU0o5mU+L4nf+7/GpzFwdNQp8TwUoA4K2P/4ecukOMGOSD+qFHMJlMmEwmlMM8qSw9jbfhWz4vm8znZZPxNnxLZelplMM8be3UDz3CiEE+5NQd4q2P/0e6+pukYuYsTziVz4lG+3IDOUfy4LGlLJ8KBbo8zDd/tzCe4ItcUMyajvlmJj0RyubiQnFrkN5i6Ul216PN3rLRfLNE1SqOFBdSWnyI1Spz3b6DHb3bnijYnsBOr1hWzpLblRqozk1liSacdboau3I7x5JZsaeGwPh0dr0WRdjcKFZ/8CmbNVCwKZVsW0NP5i9bCu+uJ63KYQ3CXSCClQDAu/vSmTlFzQOyEEYPGMN9I4YwxHMAnh5yXN2GUVgVQOu4xbSOW0xhVQCubsPw9JAzxHMA940YwugBY3hAFsLMKWre3ZcuXf1Nmzx1OpDLMfuDWmMeWVkQGBpBZKgKcnXk2Aez/DyygRnTguwKW6jWJbNIE2zeiT4azrKUfPS2evthQPPw1JI9QNFGpvvbDSEZGzieEsfsRy1DV4+Gs2iDlupeHCLSH0tnRaQalX8Afv7BBEXGk5bfYKntbtvM2995qKtzebU2gYWhavP2q9SoIxPILOvLXpqOPXvMj+bHReMLgA8xewspvdkDhkYt72yrIGTRPMt6LMrSWfL8RrJr/Yj5YD3z7essyr+tQK4IZfEC+5uFeuIzyhOMks9jYgSLVfls2pbnWC70ORGsBJt5Pr9gpPt9VNU0oBw+GLmbCzW1DfippvC1ScNPHw/kp48H8rVJg59qCjW1DcjdXFAOH0xVTQMj3e9jns8vpKu9NUFqQmjg+Am7nXC+jmyjDzOm+uA7NRRftGTldlSXnziBHg2zpnaUUZzMwuValM+uNw/3jKokMymK3x7oaietZEZ8MjFTAO9w3khOZvUsJVBB2r+FsnDTCZQRa9ianMwbEUpKPohD/UwqJb0QsPRZ8WieS2Cffjork5LZ+noUgVUZrIt8khVZDdfZtp4xZMWjWZ6O3j+KN5KT2bp2Ib6V6SybE0+mQ+/1DsrKYB8AKiZinXu8tTkrQ1YGmUY1C2Z6SWrk+GhWsUuXweqpXX8+vlHbyPtqG5HWakMDJQfW8mp6A8rIcEIcWvsQNk+F/qP0vvuchC6JYCXYXG1swWhsx9DSQsO1ZlxcZMjdXLl6rRnlMIWtnXKYgqvXmpG7ueLiIqPhWjOGFvNrrza2OKzzlinVzFRBwYl826R3QbYOvSKUmROBidOZoYDso9a0+hpydEUwNZQQD7v1GH1Y/mEGm2PCCZsbxRs7kwiTQaa2qyEnOROmaXjcF1ComDFXQ4ifHMOBjaw7piTmQy07XosibK6Gxa+lkvfxUnxPbWTToa4C300w5rEpPoNqVRyHPk0i5ikNYVGr2KFNJ2ZsDfs2vEdBN9vWUzkHM9D7x/FfKXEsnmte/64t0fi65HI493a2X5IsEZthLrb0/qzljvNRRSTGWoYDrc81NxOwDGQe0IL/VCZL49HYKLZuiWbyUEl5N8pTIvCbpGZ23G7Kp69n19pQpJ+qb3AwCqOWw19JKoQ+JYKVYPP1t5U0Glqprqnjm9PlyOXujPQaTP7pc8wJfcTWbk7oI+SfPsdIr8HI5e58c7qc6po6Gg2tfP1tpcM6b50PIaE+kJdv2alVkKOrgFmhTAYgiJmzQJ91xFxvLOSLLyEwVI3D/ss/ggUT7Z57qJjiD5yp6HJOpSvZWi14+DH4go7MA9qOpbwFJZB5+DaHiPK17NVD2IsvMME+UUAexIvRQVD2KQe7TBToOaW3DxTvIDFZR4neEpyCVnHkZB5vOsz59BHbnNU2y1BdEYlbujqA6Eop3xUCASomSKtuksE/iq3JSayODEKRtZbpz3XRUx6jIhAoKJYOtQp9SQQrweZ0SRmjlMN4JHACrW1tHDtVynfnatBfbSbfLgjlf1uJ/moz352r4dipUlrb2ngkcAKjlMM4XdLjw+MbCnxMDfpcckqB6jwOF0FYqNpWHxKqgUodOWVA0QlOWIYIHcjcOh0p35wKys+YM882xcWxzGFJ5ThAyZkeB74u1evR48OE+ztvqXKUj3kbLklrbk5g9Hpi/BvI3hLL7EeDUanDWbQhnZw+nbPq0DFnFcrKeEuGxZ4Mu+SG66mmvBIUnh29/Vs1ITSCsLnhxCSko31LA6c28upHksQMpRIlUFBslyko9DkRrAQHAeNH4jVkIPeN9MLVxYVzFRcBaDa0kft1Gblfl9FsaAPgXMVFXF1cuG+kF15DBhIwfqRkbbfpUTVhlHKq0IAhT0cOamaqO3bocnUoIRRx7KSB8i91lMvUTLHvRfUmW0+gi+UT6463H1OoWZ1xgqKDqbyxXEOgvJqc1AQWaTSWObFbZZcgUVxI6bZwc7Hk89o8S/q62+c7WjpfdXsUc8OZDxzPL5RWCf2ACFYCAI0XjHxZd4C9R3U4O7UzWqlg+FAF6mB/Hp88gYJvz3KioIQTBSUUfHuWxydPQB3sz/ChCkYrFTg7tbP3qI4v6w7QeEE6jnKLPKYycypk5uZRcCIXVKGE2I/xWea1ck7kceKrIpillkyO9wYlI3yAImkafS8arEBBBSXfd+7lVFdVAH48cL+0xlH5BUlvoPIMZxxLAJD7qVkcl8wuXR5FR5OYr6hh3/uHHE8BuFPGm4fTAM6U3v6QWqf33EM5G9SoHk0gR/ozNRjM86NuknKhXxDBSgDAaDAhv7+WvPoDHDrxD1paWghS+TDEcwCl56oZPXK4w1J6rpohngMIUvnQ0tLCoRP/IK/+APL7azEaeusKXl6EhKogfzfb8xrwDZ0q6cGY57X0J9LZkwch06fe5pBfV+SEhWsALdvTJMNApe8yzz+Y2Vtu86TRIA0LFJC5/X3H+RJDPttT80E5nRA/u3IHCgYrQF9Y6BBwSjIy7BIYSkl5Xo3quXSHNvJhPozwtCu408ZqWGAZ8StIetsy5KdjU5Ll83sqnBl2zbunxNcb9LW3FmInjA/AoE/ngwOOPcqS9FQygbBpHUPNAFRXUw0E+nf7JQh9QAQrAYBf/vxprp2W0yi/wJd1WeiKcvi68HuOFh3j8Jm/0dbWxmOTxvHYpHG0tbVx+MzfOFp0jK8Lv0dXlMOXdVk0yi9w7bScX/78aenqb5lvcDCKYi2ZxZ7MmGHZ09kJnBGKokhHtl7FTHXvDAspPD2h6EM2pWvJKTUgnx3H6olQsCkcdWwy+w5oSUuOY/aCZAqUGlYv7rxdUifS1vLqmi6WnUUgU7MyKRxlUTKzn4wnZY+WzPSNLNJEkVLmxfz1sZakks7bBkEsWOAFxxJY9Eoq+w5kkBIfzrwPINB2jWE/wmb6YDiWQPjza83r35PKq8+9TEqlF5Ex4Y5JKbdjVpJ56G9vV0OjPsS8vcrSu8pgiX8Afv6xtnT21ct7ep6VionBwIlCu4Dcc8qItayeCJmrnmTRhnQyrZ9ZUhHKp7bxp7mSQ55zRRTgyeRgyXyo0KdEsBIA+I9nFjJt+AzaKwZRyzn+efkwHx/bzd9LDvFtwzH+WfE5FRdqqLhQwz8rPufbhmP8veQQHx/bzT8vH6aWc7RXDGLa8Bn8xzMLpau/dUGhzJABsunMtD/X11avZoaR277Ekr3Ji+IJG1vNvtfjWPReHsj8iPlYx9ZoNYO/epcVcXGsS8mF0FXsykhiRg/m+cuP7mbnzi6Wr8y9A8WsJLQfrmG+4gib4uNY9no6BaOieDPjUzbP6uj+dNo2YPLqT9gaFcQl7UZWxK3lne+nsnn3RhbYbZdvdDqHNoTj+/0hEuPjWBa/kYP6YFZ/+ClvhvZ+f7RbY6PZb8sAtArnveLdxNzE9zdjlgYq8zh+K1eWkPkR8+Ehtj7rQ0F6Asvi4tl0REHY6+loN4Qi/ToLsnXou/v9CX1GXHVdsCkvr2TbRx9xqi2Py011OLs5MdhHRluLidaaAYzRm4dHzinycPVqwsXNifoKI+0tJoYPGMJEFzWxzz6Lr6+4bYhwhzXqWBEaS8UrOnZF9U6PumtFbNJEkDYtlfzXJcOD/Yi46rpwT/H19WZpZCQTZWoGlfuiaBmCi8yEk9HEtZpmzl8s5vzFYq7VNONkNOEiM6FoGcKgcl8mytQsjYwUgUroGx6hvLjYh+OpO25pKLDHcneTVhbEytj+G6juFaJnJXRy7lwFdbX1HMr5go8OHQJg1PDh/PGl/w+A373zn1RdvgzAs7NnMzvkcYYMHcyYMWJMX+hDjTpe1ayieb2OzXfkxOYG9i1X88dR6eSt7d9jgPdCz0oEK6FbVRcucu6cOcXY3d2dhx8xT41/83UBzc3NAIwZ48Oo0b18fpUg9JA+Kx7NBm/eOxjX+TYht+tYAuqXYatuDZN7e929TAQrQRAEod+7F4KVmLMSBEEQ+j0RrARBEIR+TwQrQRAEod8TwUoQBEHo90SwEgRBEPo9EawEQRCEfk8EK0EQBKHfE8FKEARB6PdEsBIEQRD6PXEFC+G6dh0pZOlbGdJiAN59JZyF0wOkxYIg9LF74QoWIlgJXdqecYxPPj9Njb6RchcXBoVNpnZ7JgBDXwzjauZxfNva8FJ48PS/PsSL4VOkqxAEoY+IYCXcc/57/4cUnYOTnj6cPleD8XIDAx57gMFV51g1LheAjWenUj9qDE1ffodsuCcPjfFiUkMFqjHwy3nPSVcpCMIddi8EKzFnJdj8NSuDw5UH2f/1V3xTY6LFYzhtboMYOnQgLw7L5bkxJTw3poQXh+UydOhA2twG0eIxnG9qTOz/+isOVx7kr1ldDxnetLJU5vkH4NdpCSYoPJpEbY1d4wpSFgTgF6+zK7vDLNs3L8V8VfrbVptPSmwy2dLyHyXL92X7TiNIKZO26Rl9VjxqTTIFRmkNYCwl5eluviNjDZkbopk+ybwNKnUU6w5UYLBvcyyh+3ULfU4EKwGAzC91pB/bwWXacPcfS4u+lRZ9K6YBHgwr/Y7nA8+x/3MX9n/uwvOB5xhW+h2mAR62du7+Y7lMG+nHdpD5Ze8FDcVEDZGRER1LeBAjqvJIWR7Kop32AeuHrXz3ehKzKqXFPz5lqczzn01ikX1hEYmaAFZk2Zf1QKOOxLVHCHkttvPtQQylpC19gcRTknIAGsh+7WmWpZ5BGbWGrclrWPxgBWlxs1mYUtrRbEocv/N/l19tdthY4S4RwUoA4OW338B1sidnix6kwfdfUfjKGTzSxODAYTifK+bLr9rZWDqfjaXz+fKrdpzPFTM4cBiDR5pQ+Mpp8P1XzhY9iOtkT15++w3p6m+Z7xOreDNhfcfyViqHspKZr4Ccv+6nXPoC4e7Kijf3lhakdvndZG/ZaL6zr2oVR4oLKS0+xGqVuW7fwZs7yCnYnsBOr1hWOtx40UB1bipLNOGs03VzMHMsmRV7agiMT2fXa1GEzY1i9QefslkDBZtS7Xq3nsxfthTeXU9alcMahLtABCvB5tuRq7jqNp6qUwZaH5yEs+cADMXnOfvkQuK/eYKs5GiykqOJ/+YJzj65EEPxeZw9B9D64CSqThm46jaeb0eukq629ylUTPQGWloch21suhsW7LpcfyyVZXPU5p2sSs3s6I1k9ubOqTaftPgoguyGnFak56O3VGfHBzA9qQjIYIm/dfu63tYuy6u0rIsMJUhlXn9QaBdDWv2Cjj17zI/mx0XjC4APMXsLKS0upDQp1LH59TRqeWdbBSGL5lnWY1GWzpLnN5Jd60fMB+uZb19nUf5tBXJFKIsX2N/Z2hOfUZ5glHxqEyNYrMpn07Y8x3Khz4lgJfTIeaOJ8MtNhF9u4rzxLubkGA2UHHibtCIIjHiSCdL6m1SeFoX6uY0cH7GQN5KT2bp2IcozqSybGYH9iNAt0+tYER7Fuv16ZsQl2Yac9r0ehSZehx4IfD6ZN8J9gCBikpPZ+vxNnA7QqGNFeBxp+gAWr01ma/IaIkeZh7RWHOhn4Sorg30AqJiI/Zzkzc9ZGbIyyDSqWTDTS1Ijx0ezil26DFZPVUrqzHyjtpH31TYirdWGBkoOrOXV9AaUkeGEOLT2IWyeCv1H6WQ2OlQIfUwEK8Gm8pgBQ307A86e5FrOdzQNHYvbuJE05X3LoH//KeeNJs4bTQz695/SlPetuW7oWK7lfMeAsycx1LdTeax3d5AFSbMdEyxUwcyOy0CxfDe7ou2PjG9Bo5bExHxGxKSj+2AVi+dqCItaxY7Du1nuU0Risva2eyc5b61iX7WKlZ9msDkm3DLkpGVXjA/VexLYXgTKiRpmBHgCPjw+V0PYROkO+DpyM9in92Plf21jZZTGvP4P3ybGW07O0bzb3v4bkyRLxFoSbIo2Mt3ue3OcjyoiMdYyHGh9rrmZgGUg84AW/KcyWRqPxkaxdUs0k4dKyrtRnhKB3yQ1s+N2Uz59PbvWhmI/qAjgGxyMwqjl8FeSCqFPiWAl2LT/8zhNg70x+PjTduEyTcWXqL/iSuPZWupah9va1bUOp/FsLfVXXGkqvkTbhcsYfPxpGuxN+z+PO6zzdnVOsFAzQQEFWyKYtz7PNpR2S45qyTTKGT+wmuwDWjKty6EKDF7AAS050tfclHwOZjSAJpoYP/tyOZOff4HJVLDvs9ucvB/tjS+lfJCYTHZxgzk4yYJYffgE+Qmdd7z9hm3OaptlqK6IxC3SIc/ulPJdIRCguu2etcE/iq3JSayODEKRtZbpz6VSIs3+G6MiECgo7iKrUOgzIlgJNvLzZxgYMApTQCBGxXBay6sxFJyjtcnElTOtXLYsV8600tpkMteVV2NUDMcUEMjAgFHIz5+Rrva2dJlgkZfH1nBPStJW8U6+9BU9V152BjCQnRzHsjjHJeUYwBlKbitBT0+9Hnz9xncOGqN88AHKL1ZLa26OaglvRvuh173LknA1qknmObe03P44Z9WhY84qlJXxlgyLPRk9TN2vprwSFJ4KacVNmxAaQdjccGIS0tG+pYFTG3n1I0lihlKJEigo7o1xYeFWiWAlANDWZMLDs54h7pdQDG3BdP9YjJ7DcHNqQn7fEJzOV1Lz97PU/P0sTucrkd83BDenJoyewzDdPxbF0BaGuF/Cw7OetqY7PKcl8yRs0TwU1JDz1e0e7apYrbVM8HdadhPjLW3f33gS8loGRfkZ7Hh9KWEqOZdyU1n3/GxCLXNid5ZdgkRxIaXbws3Ftp6Tedk8S/q62+c7+iaGS3tAMTec+cDx/EJpldAPiGAlANB00Yjvg6cxZWWgaCxlyCgTpnH34zRXg2KaHwMLvnBYFNP8cJqrwTTufoaMMqFoLMWUlYHvg6dpuigdR7lLqqpx7LeUUlLc8WzEKB+giGMn71QfRMFgBZSXnuncy6mqoAKYMP4G8243eA82Hn6ERMWxdaeO/Hwdm8M9qd6TysHb7Lj1qvHm4TSAM6W3e5AB5Re6SU2/gZwNalSPJpAj/ZkaDObvyU1SLvQLIlgJNt6TXJgwpYj2v+9lYE0J/mEDGcIFanafoO4nTzssNbtPMIQL+IcNZGBNCe1/38uEKUV4T3KRrvYOaCBzx370eDI5uKudvTuKwUBhkcP8g16bwUG75/JZ4YTJIHP7+47zFMZStiwIQDXnXbskgFsRxJxwT9CmSjILDRz/4H2O48UMtcNklp2evYeS1GiCJkU5ngck98Jn1GC7gn5irIYFlhG/gqS3LUN+OjYlWebtngpnhl3z7inx9QZ97a1F4gnjAzDo0/ngQINDeUl6KplA2DS1QznV5gOGQP/uviuhL4hrAwoAfLw3g837UlHOaOKa3p2yswHoG8cx0P08Hq7lnG+axbCXzEM8V97J4L4BWTS2+nKt+T4UHmcZO66QgYpmqrMHsGJ+NM8ssAwH3aqyVOZpNlI+UcOcAPu5CT0lWh3Haw0wdT15H0SgpIKUBbNJfHCb7Vyd6p3RqNfkoQyK5qXoIMhP5510PSP8iiiwa1eSEsHspCIYFcryVyKY2FjInvT3ySz2ZP62T9k8y9Pub9vpdvssRmtYuTwUpV7Hirmx7Lvix/yVscz11nPsw22k5NagfGob2qRQFLbtLSRk6VqeD5tK2ESvnr2HslTmzdlIgVJN5PMRzPSG8qPpbN+ZD5Hb0PW3JAvL59b5IEDFau1uYsZKy7uW+UoAy04sZf/hOFtvrTMdK/xjORN/iP0xdgc1xlJSngknsciLkOdjeT5IQfnhbWzaU4rC7juxOZZA0HP7WfBhHm/00+s13wvXBhTBSgCgtraOPZlaPj6xB6fxV2hq9qS20h1XuQFXeRMNDT5cHvBTAIY3/R1PzwpaDQNoNcgZ6t3MAPcGTGeG8UzwUzwVpmHo0CHSP3Fzut2pgWJUEDNi4/nDs0EoZFjSpx2DFTRwPGUNr27TUqIHhZ+Gl95MYEK6miXYt4Nq7UZWbNpFTmkDIEfhH8pLbyQQM6WbQMX1tw8sczZ7LUkEtfmkbUhi04F89AaQDw0iMj6BlRF+HTtFfR6JL7xMyqkGmLiKI59E49vD92Ao3s1v1ySTfbIGvRFQ+BEWm8Cfoq2fT39jDiLmc64AwnmvOKmHvSozQ0YcqleqeUOXzuJR0lqrboIVgKGCzA3x/HZ3x3cSFmf/m+pQsGk281KCeO9UEjP65ecpgpVwj7l0qYa/ZnzK4Yq/U375AgOGO6N8yJW2ZhPVpc6UfjECAL/HL6H0a8fF3Ynq0600XW7Hd/hoZvr8lF+EP8mIEb078S0InTTqWBEaS8UrOnZF3cnfWxGbNBGkTUsl/3XJ8GA/ci8EKzFnJdiMGOHFM3PCCBnxEx5yfoQRptE0XmrjapUR0xUTmsChaAKHYrpi4mqVkcZLbYwwjeYh50cIGfETnpkTJgKV0Dc8QnlxsQ/HU3d037vtDbm7SSsLYmVs/w1U9wrRsxI6qay8gL5ez9/z8vgk6+8AjBg2nHVLlwLwxrvvcunKZQCenvVTfqpWoxiswNt7tMN6BOGOatTxqmYVzet1bHa4mG1vaWDfcjV/HJVO3togaWW/ci/0rESwErpVdeEi586ZU4zd3d15+BHzVPY3XxfQ3NwMwJgxPowaPdLhdYLQV/RZ8Wg2ePPewbjOtwm5XccSUL8MW3VrmNzb6+5lIlgJgiAI/d69EKzEnJUgCILQ74lgJQiCIPR7IlgJgiAI/Z4IVoIgCEK/J4KVIAiC0O+JYCUIgiD0eyJYCYIgCP2eCFaCIAhCvyeClSAIgtDviWAlCIIg9HsiWAmCIAj9nghWgiAIQr8ngpUgCILQ74lgJQiCIPR7IlgJgiAI/Z4IVoIgCEK/J4KVIAiC0O+JYCUIgiD0eyJYCYIgCP2eCFaCIAhCvyeClSAIgtDviWAlCIIg9HtOJpPJJC0U7gUVpCyYTWKRtNyeHIW3ipCnolkdq8FXLq3/8StPiWB6kvlDCow/xP4YH2kTQbjrTp48yaRJk6TFPyqiZyVchwF9ZT6ZW+KYPiuebL20XhAEoW+IYCX0THUG61Kv2w0TBEG4Y0SwEgAVq7WFlBZLlnwdO2JUtlblWh0lDq8TBEHoGyJYCd3z8CLk2XACrc/PVFDh2AJq80lZHk7QpAD8/APwezSUhfHpHK+1a3Mqmen+lvrlGRjsqjiWQJC1ThVPttGurjGDZda6mckUWIr1x9J5Ndrub/oHoFLP7vx3LXNO1jYrtKXsXD4blX8Afio1s9fosI1sWt+Hytw2aE4cKccaHLdVQn8snRWRsyXbEc6iNZ23QxCE2yOCldAtg76UzC0f2oIEjwV1BC5An5/MvMejSNSWorfu1fU1HN+TwMLQKFJKLWUTZzPf2/I4S0eOXUAqyLYLGMYjHM7vqCNXR6bloWLWdAIBfVY8mucS2HnU7m8ChtoK898N735uLef1F3hVW2EOQMYGFAEBKABKU1kYankflm3Tl2pJfO5JfrWrU3gGu+3Yl18h2Y5ScnZefzsEQbh5IlgJQBGJmo7ega2X8Gg4y/Z07KzDImejtD5p1JG4/F0KjIBMxfIP8ygtLiT/w6UEygBDPolLrb0hFTNneZpf5xCQKsjR2QeDBnK+skY4OH70iOWRJws0QUA+76zNoBpAGc7Woycsw5W7WWkdrazOYPvBGts67FVXGwhLOERRcSFFRzPY+pQXUEPa7zZy3BJwlHPXc+RkIaUndexYqqSktEG6GiCfTfGW7VBFs8O6HSfthk2rM1jxVp7kdYIg3CoRrIQbk3kx4/UMNodbAg5QnZHKzmrzY9/YBFZOMdcppsTxpjW9uyydnbnmh5M188y9GBrIzrYkajTmc0ySs1Fy9IQ5CFDE4SxLoJBNZ+ZjAEGsPmqZTzuaRJjSkkvvoSLsCT/bOvT6ZttjB2OjeCnSBzkgV/qh9ACKdpByzFKviGLzWxHmFH25FyErE1g+VrIOgLITHLf2mhoNHUOFci9C4nfb5vzyX1d3vEYQhNsigpVwHX5Evp7KoWM63ovyw/40q4KvOnoNwZM6kjAAAoODLI8ayD5qiUaPhTJDZn5YrsulHPthPk98x1oCYa6OnEagLJfsSstqZmsIsby2gwF9ZRHZe1JJXB7Bws0dPbJuBQc7DGMCGM6UmrcFYFao5O+omDOni/OqfMYz3tquLJ0l04IJejqelANFVF9vkksQhFsmgpXgkA1YdHA9YbaxvlJ2bkmnsNPcSwUl33Y82xcrGUKMzbDVlV+0dL9kaubOthQW6cipth/mm87q+OmWx7kcK4LqPJ1trixME9oRKPX5pMVHEKQKJmhmBEviN5KiLbLNNV3PhPGdA8+lqo5hyK7qFYM7epM2slBWxjsGaP2pDBLjIlAHqZkXn0p2mYhagtCbRLASHMj9Itiatso87wRQrWVFRALHexAMutRm3WnLmaHRWB7ncTgvn5w8yzDfVDWTp4USBpZhwjxyjlh7bhrmzrKEKmMpKS9EsW6PJTgpVIRFr2LrJzr22yatuieXuUmLHBiu9jzA+EbvJv/DNcwP8nTocWJsoGDPRpZoNCzZ2YPeniAIPSKCldCZXzR/WWG3869OZ1mifZqeD77jO57N39bFOVrW5S1rgAL5LI0lIEHmzmQOF5sfB4aqUXpMZeZU8/NyXRLbsywNp4YS4mF5fGQbiacsj1VxHMrbzdbXogmb6IX8uknm3fMd2/FGyis7Z/7p67tKsDBTTIli8848ik7mceiDJFZHa5g81Bq6ashel0xmo+RFgiDcEhGshC5NiHFMLqhOW88Wu47C5KkdyQMnTtpnSRjYt7xjSHCFNegA2AUkcvM4DoAPM6b6AF6EhFoCZFGROcsQmDxnui0Dsbz0jOUR8KCKCbb5JQOF39xiL8Zf1TGPpctzSKvHWMTBg50DWCdyTyZMDSfmtWR2fZFKjDVN31hBuWUUVBCE2yOCldA1mYqVf1mKr62giE2v77Zk6oEyPIowa8LEtjVsyq3BAOiPvc12raXR2KW8aJ2KAsCLmXOsyRcWsiCmWGKUb3CwJWPQSsWcaV62Z75+dt25rN3sLDOAsYHjKXH80fo3AYOxpePJjYydx2JrANWns+KV3ZQbAEMN2Ymr2FImaQ+Qa3cisyaB7Cprr85A9ZdacqyJIYpgAjtPgwmCcAtEsBK6NzGO/1pqt7fNXcvvMyzDYh4a/rQlAqXM3APZ8nwoKv8Agp5LNSdGyFSsfjeuY+7LQjlN45iRZ5+BF9SRMQjA2FBC7FPHp8eyeqLlsV7Lq5pg/FRqFibpqFZ0zB2VfFN4E4OCXkS+s435lu5b9YG1TJ8UgN+kUJak6Qmc2EW0mRrH1sWWVPmydJaEBlt6ksGon7e8f7yYnxTXRRajIAi3QgQr4boCV2zrOOEWyNyQbEu2UMxaj+5gMjHT/FBYI4Xckwmapew4vJuYjlOfOoydygy7ABQyfWpHgoJMzaxZHXW+c2Y7BjaZHzHvp/PGU0G2vycf6kdIdDJHjr7fMfyWpSWzUwbjdShC2ZyRzmqNHwoZ5luj+GtY/eGn/OWJLrIB8SRkbQb5H64hcpofSvvuoMKLyZqlbNVq2Ww9EVoQhNsm7mclCILwAyfuZyUIgiAI/YAIVoIgCEK/J4KVIAiC0O+JYCUIgiD0eyJYCYIgCP2eCFaCIAhCvyeClSAIgtDviWAlCIIg9HsiWAmCIAj9nghWgiAIQr8ngpUgCILQ74lgJQiCIPR7IlgJgiAI/Z4IVoIgCEK/J4KVIAiC0O+JYCUIgiD0eyJYCYIgCP2eCFaCIAhCvyeClSAIgtDviWAl3FhZKvP8A/CzLgtSKZe2AbLj7dr4B7AiS9riJkn/brdLPNnS13bBUKZlXXy6w7Z3VXb3VJCyIAC/eJ204vqy4vHzD2BeSoW05jZZtqeb7/tm9dpnXZrKPFUEKWXSCuHHTAQr4brKUyLw02ykwL6waCPTHQKEeae2ZI99I9gXe5sBy2M8cyIjiLQtanwBxqrtyszlSulru5CzJY60bw03LBPujN74rA3F6SxZvJECo7RG+LETwUq4Dh2bkooACIw/RGlxIaXaVQQCkMEeayDKepvEIgAVq7WFlBYX8t5T5qp9sT3r9XRJGcryhPW8aVuiCQYIjrYrW8+bCRGWbRJ+tAw15KTEEroggexqaaVwLxDBSuheVgb7AAhnZYyPuWxsNPuLzQFp8yxzUfbBDPMDVThhY80PZyy3BrUzlNzx4ZoGjqfHszBUbRsaVKnDWZaSjx4ce35FG5nuH8C8lK+6KLMMoxkbOJ4Sx+xHLcOMj4azaIOWavuj+ax4/Pwj2KJNZdGjAfip1MzeYg7sGCrIfD2KoEnWbYliRbp1WzpUaxNYqA42t9HEsbO0RdLiNlRpSYwOt22Dn0qNOjKBzCpJO30+afE33lYbvY5XQwPwmxbHPrt1Gcq0rItUo/IPwM8/mKDIeNLyGyy1XX3+NzdkWZ62lEVJOvTjo9mxIVxaLdwDRLASutURhFSQEtExR+Qwh1FBybeWhw+ONw/TAYwdz3gAijh1xlp4ZxRsimDh61r0U2PZnJzM1teXEjK0lMykKJbtrAGUzIhPJmYK4B3OG8nJrJ7l30WZEqgg7d9CWbjpBMqINWxNTuaNCCUlH8ShfiaVEofhpyI2vZyKfHESW9dGsXi6Chp1rNPMZtluPTPiktianMTK6XoyX49CE6+zBYHqndGol6dToIyw/G09m15Yxd5uo8RN0GewbGYcKWeURL6WzNbkJFZHjIf8dJZFJHDc+h70OlbMjWLd/goCo9awNXkNix+sYN/rUSxK7SKYGEtJeSGWnbVBrE5LZv4oc7FBl0DonDh2Nk5nZVIyW5NeZkajlnWRT7Iiq6Gbz9/8Wacs6OGco9yHsPh08vauImSotFK4J5gEoRuHV6lM4x7oZpn/numcyWQymcpN2+dbylYdsXv1EVOcpW349nK78tthWafD38k1/XHGv5j+ZdURU7NdqenaIVPsQ45tD6+y3+6uy5o/e9k07gGN6Y8nHNZmMp3cbAp9QGWK/cxS/vdVpnEPqEyhfzrh0OzUZo1p3EMvmz664lBsqt9vXu+fC00mU1uu6fdTVKZxP3/P9F2bXZtDq0yPdHp/PWDZFuvnfOmjl02PTHzatP17x2anNmtM4x7oKDc/15j+fNK+ld6091dBpkee3GY6Zf1u579nOtd2xrT9F0GmcQ89bdp+xr59oenPP1OZxv1ql6ne7r2Y16MyjfvZZtMpS4n0s+747awyHbaV9cDfVzm8D8Fk+uabb6RFPzqiZyX0iG3OaptlCKZoI5tuJ3mi16hZfTiPvKRQ5PbFHiqm+APX9NzMlH62Vgsefgy+oCPzgLZjKW9BCWQeznNoH/xokN2zUrK1FTBeAbl2rz2gJadWji8VZB+tgKJcsvUQtiSKCbKOVys00Sz2tlvdLVJGJpN/cjcxliFZq8BJQUAD9Q0AFeQcqQDVc0ROtG/lyfwtJ8jPWGo3D1hD5msvkHjMm5V7dxPjZ9e8VEdmGUwYCjmH7N9zLvVyHyjTkdPtMLAPMXsLKS1OYoa0ShAkRLASesBuzmrWy6xWmR/uO3iTKdZ3ktGAvrKI7AMZpGyIZ9GcCHPSR0U1l6Rtu1VB+RmgUcemuDiWOSypHAcoOXOd1OsKvisGinfzqvT16zMoBwq+L4VLlZTjw4T7HcIroMTXNo56+wz6GkpytWSmJ/Pq8iiC4jLM7/ESQCklRZKh2+4UpZK4pwYo5eBRyfDg92coAUp2rpV8XnGsy6gAivpgzlK4F4hgJdxx4/0sge4OKdkZi3piMEEzI1gSv560QxUops8j7FZ7KapVHLEkkXRaPom+8c79qW2dX2ddEkKlre144u4pLbsF+jwSw4NRPRrK7Ofj+O22Tzne6MPiufa9QGjuafq3zIvIbYfYrIGCpLXslCZpAPO3dfFeLcub13vLgtBDIlgJ3Rrvb+lCXTejz4cJD1oefmvX6yg7gzmvQsVEc6bFnVGVzqtrdBhmredQfiGlJ/M4cjidra9FMEHa9oaUjPABivI50Sit6wklvt7Alyccz0uTGuGNLxWUfC8doCzlu0JJkUTOhlCCpiWYe3kSPqPMZ5vlvPUyKcV+xHygo6i4kHzdIQ6lJvFSqP3ZaH5MnCj5zizKUyNQqePZV2sp8I9m+Swf5sevIpA8Xl2f0ZEtOMIbX+DECUsmpCDcISJYCd3y1YRb5i2KSNxiGfKznVMF8+eYD5lnzLHOY2WQaQlq2VusJxKPZ4Jk7qRXFeZzHJjxVAQTPDqKDfkZ7Ku0b9gTcsLCNYCW7WmljlWl7zLPP7gjPb1LKuY85QOV6WzXWtO2zfTaeIJUapZlNMDE6YQpIXP7+w7ZhfqsVHbeYJuVwxToq3UcPtVRVnAiH/BkxGg5UEHBiQbwn03kVK+OeTxjA3sPaDtehA8h032g6EN22q0LYyn79hRhGKUiWJp1Nzaav6xQgXY9v7e+v4mzmT8Wyj9MJdMhk7GBzFfU+D0a1xH0BOE2iGAldG9sNP8Vb+ld7Yk1p63HWtPZV7HScp5VxzxWEYkac3q79WoW87fd4cnzADUhMtj3Sjjr0rVkHvj/27v/mKjufOHj742bxxufSNPE6dMnQryAUg9oitUr2k1H1mcH7DqAW1zuI157paER1o3DXcPcltXVVtd2h7KXadaogchGrjTrlb2CsxWYVJHkVs1thacKk3KBlAWzPsVsIzxrZFPzff44Z2bOHIZf/min9fNKThy+3+85852RzIfv53zOHB+17nwytjTwueWUUNz8+RB4j6oGP5cG9FWNtW1ulouKZdBd5SSjxEvzOT/1XhdZeV66bQ4qtgVXm9GlFe0h1zZG8047Wfsb9PnsKcKxy8eoVsLuF+cD6fz0gBNbwEtOnpvaM36avSU4dvqY7nrXxRvySZszzOEtWWz92V7KirLYfGwYFhVSkA4Qz3OrFkCvl63G/FsbKtm6wc5rHZFviD7XYQ7/2ElZrY/Wcw3sy8unKrCAgt2FUdOdi4v3ss02RvN+D+13ADRefd2JbdRH6feM/4Mzdbz28kZKfWOklbjINYKe9b2eVem6ENbyQCEmMEqjQ9skpdXWUnfXB9YRDypa6bpStzuPq5Ls1frzLl2tVv/4gPpdz6j68M3VKnHpLtXyF2Ng/2lV8oN0fdzPjWNEa/tyRLUc2q4cK43Xsmy1cvzkuPrYXI5uvCdRX+PtTnWifIt6dpmx/8oXVP6+NvVHSzX87Y9M8165UZXUnFa/zJ34+qysr3fC3L4cUS37ws+/dPVGVVJ9Uf1x+LQqXKIpe3WP+WARc302e5eq6Rw1Ok2l6+E91N2Le9TqJZpa/Wa4bP9250nl+vFqtdT4v3/2hS3qF+8PRV5OMOG9ltL1h+VxKF3/jlJKWQOYEEKIb45r166xfPlya/O3iqQBhRBCxDwJVkIIIWKeBCshhBAxT4KVEEKImCfBSgghRMyTYCWEECLmSbASQggR8yRYCSGEiHkSrIQQQsQ8CVZCCCFingQrIYQQMU+ClRBCiJgnwUoIIUTMk2AlhBAi5kmwEkIIEfMkWInozrv1OwNPchfXodp8o1/fcmqHrUMAaHeHxySlpFJ23jpi5kYDjRwqcpK+PHi8FaQ7i3itoYtR0+3hY84XXdTuNM17lZPS2ihzvulnX0EGWkoqSVoGWUVe2uWW8EKABCsR1WAdOcHb10fR7k5lnScQ0dbtybIELP2W5cHb2wc1l9xHwLo3RuseO+l5e6kftpFZvIcjXi9HPLvYYLtB0/5C0jce5NKodccYMNpBmbOQQx2Q6fJwxOuhwg6tnkIcr3cQmvLNRrZ+30X9zVS27fdSvXsdfHSMV5x7jdvHC/GYs946WDze/ljzUsSt6Sfccvyz48ppuW19eB/TrcaN276b28K3vZ/dbcyvv+NQiUs05XynU922diqlbn9QPuE267HierVDJS55Sf2m39L+jkMlLnGod4w7zH+4b7VKXLpLNZlfYP9R5bTehl6IKB6H29rLykqERFsxWQ35fXQD4GTTer0todhFLgABrvfrbe0txspMc5K9SH+YubOcNAD66RvU26Z1s5FDtcOw5gDHd6cTZ+0H4tYf4E3nfJ4Y7KHP1D4+aEqrpawgvcBNfdeYaUQHZSmp5NR2cbXWxTojTZf+0kFabwJfdHAouP/yLD11Z9p7erfovnYbUrLITorsSftfDmwMM/QngC5afGOQk0+u+QUm5bNtDQydv8yQqVmIx5EEKzFBmruNi27N2gxAf68RzDSN5FBrEsuM4f0Dw8AwfZ8aXc8kkxActijZ2Ccc1KYz0uHj0j3I3Z6PzdoZMpfsX1+hrbaQxUbLeMdB7BtcnLqzjt0ePWWYecfPvoKNlJ03BywYqtvF1hOjZL/updrt5KlAA6U7SnjF6aI91UW1dw/F2l1aPYX887lxYy89zTnZOT3dAgpqrzDg2xGaV9BITycjzOeJJ4AbnVwdhbQUS0RjAWnPxkMgQI/1/JYQjxkJVsJEo8Lfw9nieGvHjHX3DlibotKD2vS6P7kCaCx7xtozlQC/OdDAyPoDXGnyULzJQfamIqp9HVQ7btH81nFjdagbHV9Dta+OikIHucUe/qU4HgIdjLzcSNv+QrJfLKTit26ygdb/uGLa8z6NdvDLw12wqJCClcCXenPyoonve9wT84F+hmb2dgnxrSXBSoRkehopNlJ2MeOvAMksXmhpH6wjx1RlqG/51A4CAx20DsLiJ+FSm5/Wc8HtMrfnxsNgB5fMaUi7g2xT+k0PEElscJhWOvNSWZYSnA9APMVNPQz0esgMj5reaBdV20to/rNGxTGXnha9M6qnF+dYBwshgiRYiW+AfvpuWJrmJbOhIJ8CY8teNj/c91k/fUDfqb2UulwR2z7fMBCIPGf23bmmH4LmMjciePw3y8/34Qs/rzkLORzQ2PnebykOxsJ5cfq5OEn1CTEpCVbioZp43iW65KSJKa9o0lZl6Oe4gufAgmx2dh48wNvGVvHDicfLPdrDQG/07W27dfSjNd5bx2a7i1P37Lz9h0Z2p5uC63f1f/oHJ+b6Rm+PAckkTHx5QjxWJFiJWUlOMSopAgHCNRIDXDfqLvQgFM/i4DmmT/vDlWyD/cY+GsvC1RlTstkdPAc0N/pmXon31EISgM7OqSsbvyqjlw+Sk1fJ1YWFnDx3lAJrPF+4gufiop3vu0X3/xmGlGSSH3RVJ8Q3nAQrMSsJDqdRfu7jjHFx71Ctl2aICEKZG5z6g4CPViPl1n640ihsSGbxTM+NPV3I224N/G62VkX51gdgfLCRqhOmwLQsi9xFMPReHa0REW6M1p9lkLTKRfNX9c0QA3VsLWqgTyun7Q97WBut9p50Njjnw9lGms3zHWik/jIkOOwTqgmFeNxIsBKzs6iI3Zv0h80lemFD8NqsNLc3XKCxfhcVGkCAQw59XPDbLHKPzq4oYXHxbzm5LYnuY4WkZ+RT+lYdzef8tDZ4KXvZjubYS/PIAjLdeylYBKDx6utObKM+Sr/nZF+Dn9Yzdbz28kZKfWOklbjIfdL6LLM1k9L1W5zaX0n3vbmk/c8Bavft5bU9kdspI8auLSohDT9lLxZyqMFPc62brDwv3TYnbxRFv4xAiMeJBCsxa5mengnXYaW52ywl73q13HEjsAXlHu2h2riYeObms3avj0DLUSrWz+VqYyVlLhel+4/R/lk82TsPcPbDDo4Xhy8ajlvvwX9qD7naCKf2uyh1V9LyWTzbvG2cDlU2PGIjF2m6DDBOt7+RU6cmbh/+yRi7qIjTLV62Leynfr+LsqqLsGoHx30eMqOuxoR4vHxHKaWsjUIIIb45rl27xvLly63N3yqyshJCCBHzJFgJIYSIeRKshBBCxDwJVkIIIWKeBCshhBAxT4KVEEKImCfBSgghRMyTYCWEECLmSbASQggR8yRYCSGEiHkSrIQQQsQ8CVZCCCFingQrIYQQMU+ClRBCiJgnwUoIIUTMk2AlIgzV5pOUot/ZV9/yqTVuSx9Nu9sY5+6wdoG539jKzltHTOO82zKf8KZlZLHZ3cDV0K3gjbv35tUxFHmU+zTO0LmDlNUPWzsezPgwrV4Xm+0ZodeSbi+krKGL0XvWwTNgvEezfm8f0GhXA2UvGa9ByyBrZx1Xv7COEuLhkGAlQtrd4VvUh+m3pY/2QThUmx+6Vf1EeuCw9jeXRD/WdOKWOSgoyI/YMhfe5uqZg2wu9NJ9Px/y07pClauB/nFr+/0b761j86osSo92MtdeQrXXyxFPORv+dpjm/YWk/7iOvkfyWh6ygTq2bjlI8511VHi8VO9eBx2VbHa6aQ/98SDEQ6SEUEqpz44r5xJNJS7RlLNmyGgcUjW5elti7nH1x9BgU3twK78Y6lVKKfVBudH3kqr5TG+6UB4cX64uRI6enHGc8JwiXX/HoRKXaKrk/bvWrofgonJN8dyzdrtNuVZqKvH5ctXyZ2unUp+f3qWeXaKp1W92WrumZrxHrg+sHY/KiPrdNk0lrixXF/5iar5WrexLNOU8/pDeLzFjn3zyibXpW0dWVgKAIb+PbgA08hzxRms82Tma/jAQoB+ADspSsjhkXYBZtLf49Aeak+xF+sPMneWkAdBP3xSpxdlI+1E+i4HhGyNR0oDGz+5G2vdnoaWkomW4af4CuHeL1reKyMpYEZGK2+e/pR94sI6clBKagW5PVmQ69N4YV2tdZK0yUpKrnGx9y8/INCui7rpKmkfns63KQ/aT1l6w5e9l95r50NNJX7BxunlOoq+uEC0llZyqLkILnfuc90T99A3Nx5ZXSOY8U/P/iCceYNbHE2J6EqwEAAnFjQz09jDQ20ixEVwA+nsni0oaFf42KoxYFmmYvk+Nh88kkxBsXpRMMgABruuR78F9PsLnAHOsHSZn91J6OYMKr4fdrzpZ++QYzbvslJ7ox7apnCNeL9XufBbf66J+50vs+xiwraPCW8RzQIJzD0e8bjJtAMPU/4OdzVWd2PL3cMTr5Y18G30nXGRMmcIL0HJmGBYWUrDG2he0gG0nrnDlvSIWAzCDeUYxet7N1re6iCs4ysnd6cTBLObdQVnKdOf9Mqi4cIUre9NDLeM3r1D7updLc8x/7Ajx8EiwEpMbrKMqeM5pk5PMYLtWzkVLUJut/oEHLVoYZ7S3kdLdDYyikbd+ig/Ie3beOHWAbS86KS62Y7vZxrmP5pK2u4GTrxeS/aKD3OIDnK7dQQK3uNo5DPOSWPtiBvFAXKqd7BczWDwPxs9Vsu9jG8Xv+UP7bnu9jiv/toOE65VUtU1yguveMEM3gBWpxupyBmYyT4vR83tx7PTBpqP4D9qNQPUA856WHtw0exGHOuLY9q+/faDfCyEmI8FKRDdYR46jMpQarNhpNzrsVDcVhVdLXxE9FWeuBlxBunMvrSMLyDxYOfUHpJbB2uCnNsDT+Ry50snZYkuA01awAhi9PRbZbtLu98O8JJ74Uwet5/zhbeiv2IDWC1esu+iGh/U06nfnWnsmN9t5/lcdW3c2Mprlxe8JBypmNW871b09DMz0//iLOF70eDmyfweZSQPUb9lI2fnJ3z8h7pcEKzFRRKCC3KMPtop6GCZWAxZR4amj7SM/xwuSrMNnZnyMkd4rtJ5roGqPi80ZLpqBof87Yh1pGGaoH7jTQZXLRWnEVsdVgL7+6OmzYAr0y/tYwcxwns1VlXTfg/GPOrh6x9zzAPOezpPpZG9ykF3o4vgfGtm56BbNbi+XJk2HCnF/JFiJSBMCVQ/V6y1jHoLkpCnSdlEk/LCctw8eMG3lFG/KYHHcLFYqIWNcesuJtjyDDGcRpXuP0tw1Snyhg+esQ6PRyrnY22Oc47Nsv59sRZLEMg3o7Am9t9F0VzlJd7povsGs5zl3ZTltp3aQMNLIP1d1Wbvvc96zMEcjb3MSjHbSPTFDKcQDkWAlwh5aoIpn8TPGw09Nf7EP9hsVhRrL9EqLr8dlL6V1AywuruPKtR4GPurgoq+O6lft2KxjI9h4Kh4IdNEZsXKZiXjWro+HGw2cumztM9wL0NIywOhNG7anZz/P7FeLWJxewhsFCxipd1N1PdjzIPOO4kYDW1elsrlhYkXi+P/7q/7gu9YeIR6MBCthGKZ218MIVLrMDU79QcBHq1Hy3X44ePxkFn+NacWh652MksSGzRnYTAuz0XN+Ws0DJ5hLttMB+KmpH4jsGjhGTsoKsg5PVj0JaUW7yJ4zRv1uN60TvulhjKvVezg8CGk7t7N2zv3Ocy6Z7r3kxg1z+OfHjCq/B5v3BAtTWQxcrTsZeTH2aAc1vx+GRXbWLjS1C/EQSLASuvPvRlw71Vxi/XojN+3m8dNZv8soa9e/ASMpJfxtFrlHPeHKwq9BwooV2BigansJVWf8tJ5r4FBRFhl7OpgbUQIfxxNx0P27d6k/d4W+OzA3y0XFMj1dl1Hipfmcn3qvi6w8L902BxXbotby6+Kc/KqukMV/9lH6vJ2te+poPuentcFLqdPO5mMBbJuOcrJIT5HOfJ4WcQ5+7s6AgJd/OqHn42Y+75mUrqez2+PENniMzXluas/4aW2oZKuzhOY/a1Qcc8284lGIGZJgJcB8Ee9DE09xUw/HN0W2PuiK7aFYuQff4UKeG7/CYbeLUreX9nkbOdJyljf+DujsNFaA6WxzO0i46WOfq4jaj4A5SRT/WwdHijJ44qNjlLlc7Ku9DPZyTvs8ZJpL8KKIW7OHtg8beCMnnmH/u5S5XJTu/y2XSKfY20aHuYpvxvOcyFZwQA9Onr2cuvng87aKW+/B/145mV9e5JDbRemB04wkF3GkpYHi+6x3EWIq31FKKWujEEKIb45r166xfPlya/O3iqyshBBCxDwJVkIIIWKeBCshhBAxT4KVEEKImCfBSgghRMyTYCWEECLmSbASQggR8yRYCSGEiHkSrIQQQsQ8CVZCCCFingQrIYQQMU+ClRBCiJgnwUoIIUTMk2AlhBAi5kmwEkIIEfMkWIlI592Rdwie5I6x7e7IOwnn1Op3pLWyjis7bx0xc6OBRg4VOUlfHjzeCtKdRbzW0MWo+fbq3wBDtfkzv/vy+DDttW422zPC7+UqO5t3emkdHI8ce95NUko+tYORzTHn3gC1L03+eyOElQQrEXbeTVKJ5Y7BgUrWWQJWuzt8i/qgbk+W5YNnmNq8ieOaS+4jYN0bo3WPnfS8vdQP28gs3sMRr5cjnl1ssN2gaX8h6RsPcmnUuuM333hvHZtXZfFK1UXGl2+mwuPliNfLG9tWMH7lGKUOB6+cGrDuFtvGB6jfsZ1D160dQkxBCaGUUmpI1eRqKnGJphJzj6s/KqXUB+X6z0s05frAGPbZceU02pw1Q0oppS6UG/stKVcXgocL7fuSqvlMb4o6bgauv+PQn++dTnXb2qmUuv1BuVq9RFOr3+y0dsWsP9a8NP37cPusKlmqqcTnd6mmP1k7lVJf9quaH2kqcel29btg/wflEe95bLmrPr90XBW9EPw9CP8OiQfzySefWJu+dWRlJXSDfpoC+sNcVxEJAOud5Brd/QP6qmnI76MbACe7i+MByNzgDI6iz0g/tbcYKzTNSfYi/WHmznLSLOOmdbORQ7XDsOYAx3enE2ftB+LWH+BN53yeGOyhD0KruiR3I+37s9BSUtEy3DR/oY8f/biO0g1GSk3LIKuoktabxsHu+CnVUklyd4SfwDDuc0Wm2O6NcbXWRdaqYGrOyda3/IxYU5I3/ewryEBLSSVpeRalpwawJO+iuur10HpvAdve9ZL7tLUXmJNE8S93kBY3Tl//mLU3bHyY1reKppxnMC156vxB1i1PJWl5BkU//cEkKcUAVd+P/h5NabCBV16upP2LJIpPHAj9bgkxExKshG5REWd7exjo7aF6vd40VOulGQCNPIcemBKKGxno7WGg10Mm6IHBaw1Mw/R9qjfxTLIe+AAWJZMMQIDr/cHGqY10+Lh0D3K352OzdobMJfvXV2irLWSxufnsXkovZ1Dh9bD7VSdrn4Sh+kIytlRy9anNvOH1cmTvZmz9dZR+P5/aAWCeg7/PAc76aI8IOuO0nvPDynzyjNdY/w92Nld1YsvX05Jv5NvoO+Ei48d19AX3vdnI1u+7qA/YKNjv5cjrDkZ/s51/en+K4AJAF01Nt0Aroniltc9Ec3H2SgMV35tv7dHdG6B2Sxaldf3E5e/hiNdDxXq4WmeZJwA+XnNdZu3rXqpdJfzj9q2kEaDJbzmvdL2N5hvz2faSXf/ZOM85/fmnucQ7yjnd4aNizeT/m0JEZV1qCRGREjSnAK1MKcHIlJZp//KLph0uKtcs0z8Xfm6kEoetPVMJPv8O9Ttz3vAvbapkqabsv+pUd03N6sse9c4PNJW4q01vv3RAPWt93X85q0qWaCr/5IhSSqm77+9SiUsc6pedEUdS6lq1si/RVMn7evuH+1arxKUvqZp+05jbbcq10vqeWQwb7+3Pze/fDFjSgJ+f3KISl6xWrrbRiGG3T+9SiaZ56mlJTRWdNo8bUSf+tyktbLj+jkMlrjygPvzSaDBSvjP9P9Xpvwuz20dMRtKA4jE1wHUjJQjQ7I1eEUh/wEgJAviomvYv6/vwV4BkFi+0tA/WkWOuWkxJnZiy0jJYa84b/oef1ntzSf7vI7Sf89Ma3NqGGV8AnPNzCeDvHOTFQXNLOM014muklXTy1i8AoN3vh3lJPPGnjvBxzvlpHforNqD1whUgwIcXx2B9EduSwtMgzsGrW/SV6qS+1P9J+1vzjjprhWVSymQpuVtcaOmChYW86ohcecVtKmRbHLT6/KaUpMbzq8zjFrAhJx0CPlpD72sXp94bJs7pYO0co2m9h4HeHs4aaWEhHgUJViIKO9W9PQz0HtXPKwQqWRftw9D4kBo4qp+z6vZkzb7Sb0b66bthaZqXzIaCfAqMLXvZJGkwk6HBfmCcdq+LUlfkVvsx4eeZk8EG53xTKvAWF3xXYE0+G54GGGaoH7jTQZXlOKWuOq4C9PUzxAhDNyAhKZm5lrk8lWCNvtF1fzax0s+2Kvy6CwoywmnWCe4yehtITY5MjwLMWUjCQmB4hM+tfSa29U6eM6cCP/bRNDqfvJwM61AhHikJVmIKdna7Nf3hGd/k1wSt30WFMcy8GplKctLM/gpPW5Whn+MKngMLstnZefAAbxtbxQ9ndjzQqPDr5+Ymbo0UGzFkbU4OcfcucuE/gZGLNF2Gtc51kefNtHIuTjiGsf3eKFKZRNy8aKUiJotW8FwccK1/wqo2rSD8ut8+WMQKS/9D9XQWBWug+4MORoCr759lNC6HvKnOownxCEiwErrQxcDRqr/CQimoSS4W1sWz+Bnj4aemD9vBfvS6Co1leqXFtGx2B88BzY0+HvQyqqeejgcCfHxtBrV4K/PZtnCMppYrjFzwcQkHf+/UU4Bg46l4INBF5x3LfhFsJCyEoYH+CdV/fZ+a8qxRpeuru8B7nLrv65H+hrgngJ5+o0rS5N4Nhm4AyfFTBlVYQF6BAz720XKzi6amMRK25POcdZgQj5gEK6FL1oyy8gCHDgdXRx1UeYwP1U1OMoHkFGMJFaikKpjyO/8uh4Jl7xv0CrFQObvpfEf74UrjHFcyi41y9mk9Xcjbbg38brZWRf+mivHBRqpOTPfhD3PXO8meA601v42sgrs3wOG8VLQNx0zn4DQ2bIpn1NfILy9egRedZM8L9s0l2+kA/NTUW9J0A8fISVlB1uEAoPH9rAXgr9MrDYNGO6j5/fTn99b+rJJc2zCHd7g4Zf2mCozSee9RWq3tIQv4/oZ0uNFAjT+y+nD0TAP1o5D5venXZfr71kXLrxtoH40n94fG74AQXyVrxYV4fAUrwiZu5otMIysFI7aIqrHJx01aXTipUfXhmxv1/Ve+pEoOHVdN77eplpPVyrXtBb196QuqqCZ40bDx3JYqNqWU+q/ga3xhh3rn3/VjlGxMV4lLXlCuDyIr5lSPXtmXuDRcNRcSvCB3iaZW76hWTe+3qRPVu5RjmaYSny9XF4JViLcvKtfzmkpctlG5as6qln+vNl0UO0U1YFD/aVX0vKYSl6Qr+/Zy9c7JNtXy/llVc8h4riWaWrrxgGqZ7KLg0DxfUPmHTur7lm9US5doKvFHx9V/GRV9+v/9ZBcT31Utu/T3IfEH1eq6tVuqAb92j0M1oAQrEcn0rRUTA1BY+Nso9G2yDx3ruNkHqrC7/RdVTfkWtXpl+HjPvrBFlVSfVtf/bB45ebBSSqnP2zyqMHu1cYx09ezGXarmI0ugUkopZZS0L92lWv5i7VNKfTmiWg5tV47gfJatVo6fHFcfR8xFKfXnTlXzk43q2aWaSlyqj/ndr2bwDRZBd0fU9dMeVbhxtR5kgs+1fY+quTgUWYZvDVZKKXV3KHKeKzeqkurL6vNg6fm0wSpYqq8pe3WPtUuCVQx4HILVd5RSyrraEkJgfBNGFoeeOcqAx7gA9nF13k1SST8V/kaKZ5rCFV+Za9eusXz5cmvzt4qcsxJiMtcbqQ+YvqnhsTVGc6PP9O0dQnz1JFgJYTHScYzX9rjI2nKMIa2E4jXWEY+LAKf27KXs5Y2U+eeT++pUX3klxKMlwUoIqz930nTKz9DTTqqPTX291LfbOEMdjTT/5zhrdx7jzfXWS5uF+OrIOSshhPiGk3NWQgghRAyQYCWEECLmSbASQggR8yRYCSGEiHkSrIQQQsQ8CVZCCCFingQrIYQQMU+ClRBCiJgnwUoIIUTMk2AlhBAi5kmwEkIIEfMkWAkhhIh5EqyEEELEPAlWQgghYp4EKyGEEDFPgpUQQoiYJ8FKCCFEzJNgJYQQIubJbe2FYZjavCwOBaztE+W+WU7/LyrpBnKP9lC93jpCPCzt7lReOQNsOsqAxx7Zed5NUokvsg0AjQp/I8WLgj93UJZSQnOo38nxXg+ZoZ/FN53c1l4I8bUZqs3XA9Ukhgb6rU0TDdaRExGoAHy8kuKmPaJNiNgmwUqImDNMbV4q6zxTLXOHaT2r96e52xjo7TFt4VVV+2F9BYxWzsXeHgZ6j5ILesByd5iOJ0Rsk2AlDPEUN5k/8IIfahM/DKvXRu7Z7k4lKSW45VM7GNkf/PANj0ml7HzkiNAx8uoYGqwjxzQ2aYYfqpHzSCWndjjced496fxC+0U8z3Rz7qAs9DwdprGZPB91fHCVM0lfSAdlKTNJxw5w3RiTnBRv7TR0cMZYmaXlOEgAwM5ut6Y3ftrPkGm0ELFMgpV4IM0lxjmVkACHHOYUU/QP3+YSSzAJClSyzmGsBoLOlEwTsPTAYk2ZdXuywvutdxrBN0CT3/y84Q/03A3Bc0Kzm3O3pyQ8VvtH/mmT/rC5JXLOQ36f8bqcbJr2PJ9Ghb+NCiOuTDDYTzAJ2FwySWA3jTEHtISkZP1BIBDqFyLWSbASD8jJ8eCq66jTaPNxxlg5tLuD50vC4y4af9l3e96Net4kvJILr+4444s6FmCo1mUEC40Kv2UuZ7zGSsrOJiOIdJ/1h1YUQ7Xe0PyCAWT2czY9b1MRP94QfG7znMNpOzY5py5u0Mq5aErlRdUfiAzoQWdK9NWptT2qfvomrIKFiE0SrMQDSXPvCn/whlYv0D8wHJmGMo1LKHaFzpsEg1qYk93FwVWAKWU1KXMQcIU/4NfvMlYl4ZVUZjCIBHy0Dlr3DQaQ+5iz+Xkxvw+msYN+moynCq/gorFT3VRkpOwm195iVAGGzkWFAyqBSqqscxTiG06ClXggk58viUxDdXuyTOd/wtVpelAz0TSMJNUMhc/dcKbE9BzhNF5374D+wBrAogWQ+5hzWkpSxM/mVVwwFRhKAWrl7J42BTi9TE94JRcMbAnF3lDa0JqCFOKbToKVeIzEk51jpPPO+mmf1Tmk2Qmt4s74aDdX7oUKHWJBMounSjUKEUMkWIlHZ1FyaJVkrSgMbmdDKb/7lcSyYKZw09EJxx/o7Ym4mDbB4SQNPRVYFSr9NqUyH9acQ6s4H1Xud40VnEaeYwb7Piym12JeDYauz5r1KlaIr48EK/EImYoazIUJU5SRz154tRQuppiiTHyRgzwjFdgdNYA8rDmbVnFngilAJ9kPZSVjKqs3FVNEFJrstE9SVNJBVfD6rWeSY2iVJ8TUJFiJRypzZ7m+ksHHK8HzP8GvCLIWJtyncPFDgEMO4zmC5e8TzhGZghvRA8jDmnNoFWd4eCnAeIpdwWKRStYZcwxdRGyaY+i1hMaZKh2tX98kRAyTYCUerUVFnO2deL1Qmrtt4nfd3Tc71b09HDdWESGbjkYUIASFg9skAeRhzTm0iiPKCu4Brfcw4A8G1bAJc1xUxFnzJQAg3w0ovpHki2yFeGRMXw6slXMxSuAU4mGQL7IVQty/8++GyuejruCEEDMmwUqIhy1YjBG6fYf5QmchxP2QYCXEI6VR4ZfzQ0I8KDlnJYQQ33ByzkoIIYSIARKshBBCxDwJVkIIIWKeBCshhBAxT4KVEEKImCfBSgghRMyTYCWEECLmSbASQggR8yRYCSGEiHkSrIQQQsQ8CVZCCCFingQrIYQQMU+ClQhpdxu3cI+2rbKz2d3A1S+se30dhqnNSyUpr44haxcwevkgWVoqSd9z0xoL8703QO1LqeTUDlt7hBAzJMFKWKRT7PVyJGLbw86MOLrPHGSz8yBX71n3iR2jfjeOlxvoW1TIyXMesp+0jviKjQ9Qv2M7h65bO4QQsyHBSljE8/yLDrIjtkJ2H/ZxdrcGIw3UnBu37hQT+k6V4NjpY3RlOW1Ne1gbZx3xVRpn5HIdrzic7Ou4Ze0UQsySBCsxY4sdWSwGhm+OhNpGuxooK7CTrhnpwuUZZO2s4+pocISRsnM30r4/Cy0lFS3DTbORnhsf9LOvIAMtJZWklBWkF7ip7xoLHX9mxumrLSRnTwe86KHjX4tYPNcy5N4YV2tdZK0KpjWdbH3Lz0hwlRjwsi4leqquuyqLJM1N+2xWlIMNvPJyJe1fJFF84gC51n4hxKxIsBIzNt7TQx8QF/c3esN1LzkFB2m9s4afvhVMF9ro81ey+aeNhEMacHYvpZczqPB62P2qk7VPwnjHQewbXJy6s47dHi9HPLvIvONnX8FGys7PNGCNcbWqkCxPF3EFXvy/dmKbYx0zTP0/2Nlc1Yktfw9HvF7eyLfRd8JFxo/r6LsHaPls06D7rN9yHixAi2+YuL/PJ3NO+Jb10YJapLnEO8o53eGjYo3N2imEmC0lhOFCuaYSl5SrC9aOL++qzy8dV0XPaypx6S7VdFtv/vBXDvXs8+Xqwl/Mg++qll3m4wypmlxNJS7ZoX5n7KfrUe/8QFOJPzmtbn9pbh9VTT/RVOIPqtV1c3ME45i5HlXz8xdU4hJNJS7RlPNov3WgUkqpu+/vUolLHOqXnXcjO65VK/sSTZW8r7d/fnKLSlzykqr5zDpmtfrFJePnD8r156oZMg2azkXlmvU+QszcJ598Ym361pGVlbDw8Yq1ElBbQcbLlVya5+CNJg+5xrmgte42uv7DQ+Y88/5zSV2uAeOM3jE1axmR55AGOmgdhMVPwqU2P63ngttlbs+Nh8EOLg2axkcTqOPQqVuk7fCyew10V5VQFaWQod3vh3lJPPGnDtPz+Gkd+is2oPXCFQBs6508R4Amf3jVdPXfGxiKy2HD3xkN6z0M9PZwtjg+NEYI8ehJsBIW5mrAPRSvWQAsIHNvI11+L9tSrCeDYPyLYbo7/DTXVlJW5CSnKgAM83lEHtDis376gL5Teyl1uSK2fb5hIEDfdMGKBWQe9HF2t4OdngOsnTPM4R17aTcHSYYZ6gfudFBleZ5SVx1XAfr69dTf01nkrTSnArtoahojLs/J2gmpRSHEV0mClbAwVwMWUnHiDxzfBO0H8tlcOxA5dKCRV+ypaBlZ5BS7+cVJP8Pz1pG3fuarjtyjPQz0Rt/etltHW2hFvFGQpD9+Op/qNzJgpJF/3t9BqL4jNLaci1GeY6C3h4HfF5EAwAI2/CgDAn7abwIf+2ganU/eD9OtRxNCfMUkWIlpzCfzrd9SsQy6PdtNhQ+3qP/5XtrvOHi7pZOB3k66LrRx+nA5wfgxpacWkgB0dgasPffNVlDJ22tg5MwefhGap42n4oFAF50RK67obM58sumi6fwtrr5/ltGFhRSstI4SQnzVJFiJ6c1JovidctLm3KJ5r8dIs/Xw8ceA3UlBkik1ON5FU8t0lXLAsixyF8HQe3W0RiyDxmj9WQZJq1yh8vaZW0CB5wBr59yi2X3AOO5csp0OwE9NvXVleIyclBVkHTYFzHkONr0IV1s8nDg/RsKmLNLM+wghvhYSrMTMJBXxL2WanmY71ME4qTy/BvC5ydrfQOs5P821bnK+V0j9zYnntSbSePV1J7ZRH6Xfc7KvwU/rmTpee3kjpb4x0kpc5N7Pt08E04GjPkqN8vm5WS59ZVjlJKPES/M5P/VeF1l5XrptDiq2aaYDzCVzgwP+00fzjXhys8x9syldF0I8TP8fEMaUwkRz+iAAAAAASUVORK5CYII=;" vertex="1" parent="1">
          <mxGeometry x="290" y="170" width="228.75" height="240" as="geometry" />
        </mxCell>
      </root>
    </mxGraphModel>
  </diagram>
</mxfile>
